<svg width="628" height="491" viewBox="0 0 628 491" fill="none" xmlns="http://www.w3.org/2000/svg">
<path d="M358.245 136.249L357.855 135.664L425.878 96.2903H426.073L496.241 134.884L495.851 135.274L425.878 96.875L358.245 136.249Z" fill="#42E8E0"/>
<g opacity="0.1">
<g opacity="0.1">
<path opacity="0.1" d="M288.077 324.151L258.646 307.193V341.108L288.077 358.066L317.508 341.108V307.193L288.077 324.151Z" fill="#42E8E0"/>
<path opacity="0.1" d="M288.077 358.066L258.646 341.108V307.193L288.077 324.151V358.066Z" fill="#42E8E0"/>
<path opacity="0.1" d="M317.508 341.108L288.077 358.066V324.151L317.508 307.193V341.108Z" fill="#2FD3C7"/>
<path opacity="0.1" d="M288.077 324.15L258.646 307.192L288.077 290.234L317.508 307.192L288.077 324.15Z" fill="#42E8E0"/>
<path opacity="0.1" d="M288.077 324.15L260.01 307.777L258.646 308.557L288.077 325.514L317.508 308.557L316.144 307.777L288.077 324.15Z" fill="white"/>
</g>
<g opacity="0.1">
<path opacity="0.1" d="M326.279 345.786L296.848 328.828V362.744L326.279 379.702L355.516 362.744V328.828L326.279 345.786Z" fill="#42E8E0"/>
<path opacity="0.1" d="M326.279 379.702L296.848 362.744V328.828L326.279 345.786V379.702Z" fill="#42E8E0"/>
<path opacity="0.1" d="M355.516 362.744L326.279 379.702V345.786L355.516 328.828V362.744Z" fill="#2FD3C7"/>
<path opacity="0.1" d="M326.279 345.786L296.848 328.828L326.279 311.87L355.516 328.828L326.279 345.786Z" fill="#42E8E0"/>
<path opacity="0.1" d="M326.279 345.785L298.212 329.607L296.848 330.387L326.279 347.345L355.516 330.387L354.346 329.607L326.279 345.785Z" fill="white"/>
</g>
<g opacity="0.1">
<path opacity="0.1" d="M364.287 367.617L335.05 350.659V384.575L364.287 401.533L393.718 384.575V350.659L364.287 367.617Z" fill="#42E8E0"/>
<path opacity="0.1" d="M364.287 401.533L335.05 384.575V350.659L364.287 367.617V401.533Z" fill="#42E8E0"/>
<path opacity="0.1" d="M393.718 384.575L364.287 401.533V367.617L393.718 350.659V384.575Z" fill="#2FD3C7"/>
<path opacity="0.1" d="M364.287 367.617L335.05 350.659L364.287 333.701L393.718 350.659L364.287 367.617Z" fill="#42E8E0"/>
<path opacity="0.1" d="M364.287 367.617L336.22 351.439L335.05 352.024L364.287 368.982L393.718 352.219V350.659L364.287 367.617Z" fill="white"/>
</g>
<g opacity="0.1">
<path opacity="0.1" d="M249.875 347.345L220.638 330.387V364.303L249.875 381.261L279.306 364.303V330.387L249.875 347.345Z" fill="#42E8E0"/>
<path opacity="0.1" d="M249.875 381.261L220.638 364.303V330.387L249.875 347.345V381.261Z" fill="#42E8E0"/>
<path opacity="0.1" d="M279.306 364.303L249.875 381.261V347.345L279.306 330.387V364.303Z" fill="#2FD3C7"/>
<path opacity="0.1" d="M249.875 347.345L220.638 330.387L249.875 313.429L279.306 330.387L249.875 347.345Z" fill="#42E8E0"/>
<path opacity="0.1" d="M249.875 347.344L221.808 331.166L220.638 331.751L249.875 348.709L279.306 331.751L277.942 331.166L249.875 347.344Z" fill="white"/>
</g>
<g opacity="0.1">
<path opacity="0.1" d="M288.077 368.981L258.646 352.218V385.939L288.077 402.897L317.508 385.939V352.218L288.077 368.981Z" fill="#42E8E0"/>
<path opacity="0.1" d="M288.077 402.897L258.646 385.939V352.218L288.077 368.981V402.897Z" fill="#42E8E0"/>
<path opacity="0.1" d="M317.508 385.939L288.077 402.897V368.981L317.508 352.218V385.939Z" fill="#2FD3C7"/>
<path opacity="0.1" d="M288.077 368.981L258.646 352.218L288.077 335.26L317.508 352.218L288.077 368.981Z" fill="#42E8E0"/>
<path opacity="0.1" d="M288.077 368.981L260.01 352.802L258.646 353.582L288.077 370.54L317.508 353.582L316.144 352.802L288.077 368.981Z" fill="white"/>
</g>
<g opacity="0.1">
<path opacity="0.1" d="M326.279 390.813L296.848 373.855V407.771L326.279 424.729L355.516 407.771V373.855L326.279 390.813Z" fill="#42E8E0"/>
<path opacity="0.1" d="M326.279 424.729L296.848 407.771V373.855L326.279 390.813V424.729Z" fill="#42E8E0"/>
<path opacity="0.1" d="M355.516 407.771L326.279 424.729V390.813L355.516 373.855V407.771Z" fill="#2FD3C7"/>
<path opacity="0.1" d="M326.279 390.812L296.848 373.855L326.279 356.897L355.516 373.855L326.279 390.812Z" fill="#42E8E0"/>
<path opacity="0.1" d="M326.279 390.813L298.212 374.635L296.848 375.414L326.279 392.372L355.516 375.414V373.855L326.279 390.813Z" fill="white"/>
</g>
<g opacity="0.1">
<path opacity="0.1" d="M211.867 370.541L182.436 353.583V387.499L211.867 404.457L241.104 387.499V353.583L211.867 370.541Z" fill="#42E8E0"/>
<path opacity="0.1" d="M211.867 404.457L182.436 387.499V353.583L211.867 370.541V404.457Z" fill="#42E8E0"/>
<path opacity="0.1" d="M241.104 387.499L211.867 404.457V370.541L241.104 353.583V387.499Z" fill="#2FD3C7"/>
<path opacity="0.1" d="M211.867 370.54L182.436 353.582L211.867 336.625L241.104 353.582L211.867 370.54Z" fill="#42E8E0"/>
<path opacity="0.1" d="M211.867 370.541L182.436 353.583V355.142L211.867 372.1L241.104 355.142L239.934 354.362L211.867 370.541Z" fill="white"/>
</g>
<g opacity="0.1">
<path opacity="0.1" d="M249.875 392.372L220.638 375.414V409.33L249.875 426.288L279.306 409.33V375.414L249.875 392.372Z" fill="#42E8E0"/>
<path opacity="0.1" d="M249.875 426.288L220.638 409.33V375.414L249.875 392.372V426.288Z" fill="#42E8E0"/>
<path opacity="0.1" d="M279.306 409.33L249.875 426.288V392.372L279.306 375.414V409.33Z" fill="#2FD3C7"/>
<path opacity="0.1" d="M249.875 392.372L220.638 375.414L249.875 358.456L279.306 375.414L249.875 392.372Z" fill="#42E8E0"/>
<path opacity="0.1" d="M249.875 392.372L220.638 375.414V376.778L249.875 393.736L279.306 376.778L277.942 375.999L249.875 392.372Z" fill="white"/>
</g>
<g opacity="0.1">
<path opacity="0.1" d="M288.077 414.007L258.646 397.049V430.965L288.077 447.923L317.508 430.965V397.049L288.077 414.007Z" fill="#42E8E0"/>
<path opacity="0.1" d="M288.077 447.923L258.646 430.965V397.049L288.077 414.007V447.923Z" fill="#42E8E0"/>
<path opacity="0.1" d="M317.508 430.965L288.077 447.923V414.007L317.508 397.049V430.965Z" fill="#2FD3C7"/>
<path opacity="0.1" d="M288.077 414.007L258.646 397.049L288.077 380.091L317.508 397.049L288.077 414.007Z" fill="#42E8E0"/>
<path opacity="0.1" d="M288.077 414.007L258.646 397.049V398.609L288.077 415.567L317.508 398.609V397.049L288.077 414.007Z" fill="white"/>
</g>
<g opacity="0.1">
<path opacity="0.1" d="M288.077 279.123L258.646 262.166V296.081L288.077 313.039L317.508 296.081V262.166L288.077 279.123Z" fill="#42E8E0"/>
<path opacity="0.1" d="M288.077 313.039L258.646 296.081V262.166L288.077 279.123V313.039Z" fill="#42E8E0"/>
<path opacity="0.1" d="M317.508 296.081L288.077 313.039V279.123L317.508 262.166V296.081Z" fill="#2FD3C7"/>
<path opacity="0.1" d="M288.077 279.123L258.646 262.165L288.077 245.208L317.508 262.165L288.077 279.123Z" fill="#42E8E0"/>
<path opacity="0.1" d="M288.077 279.123L260.01 262.75L258.646 263.53L288.077 280.488L317.508 263.53L316.144 262.75L288.077 279.123Z" fill="white"/>
</g>
<g opacity="0.1">
<path opacity="0.7" d="M288.077 408.55L268.001 397.05L288.077 385.355L308.153 397.05L288.077 408.55Z" fill="#18B2A3"/>
<path opacity="0.7" d="M249.875 386.718L229.994 375.218L249.875 363.718L269.95 375.218L249.875 386.718Z" fill="#18B2A3"/>
<path opacity="0.7" d="M326.279 385.354L306.204 373.659L326.279 362.159L346.355 373.659L326.279 385.354Z" fill="#18B2A3"/>
<path opacity="0.7" d="M364.482 362.354L344.406 350.854L364.482 339.159L384.557 350.854L364.482 362.354Z" fill="#18B2A3"/>
<path opacity="0.7" d="M211.867 365.083L191.791 353.388L211.867 341.888L231.748 353.388L211.867 365.083Z" fill="#18B2A3"/>
</g>
<g opacity="0.1">
<path opacity="0.1" d="M326.279 300.76L296.848 283.802V317.718L326.279 334.676L355.516 317.718V283.802L326.279 300.76Z" fill="#42E8E0"/>
<path opacity="0.1" d="M326.279 334.676L296.848 317.718V283.802L326.279 300.76V334.676Z" fill="#42E8E0"/>
<path opacity="0.1" d="M355.516 317.718L326.279 334.676V300.76L355.516 283.802V317.718Z" fill="#2FD3C7"/>
<path opacity="0.1" d="M326.279 300.76L296.848 283.802L326.279 266.844L355.516 283.802L326.279 300.76Z" fill="#42E8E0"/>
<path opacity="0.1" d="M326.279 300.759L298.212 284.581L296.848 285.361L326.279 302.319L355.516 285.361L354.346 284.581L326.279 300.759Z" fill="white"/>
</g>
<g opacity="0.1">
<path opacity="0.1" d="M364.287 322.591L335.05 305.633V339.549L364.287 356.507L393.718 339.549V305.633L364.287 322.591Z" fill="#42E8E0"/>
<path opacity="0.1" d="M364.287 356.507L335.05 339.549V305.633L364.287 322.591V356.507Z" fill="#42E8E0"/>
<path opacity="0.1" d="M393.718 339.549L364.287 356.507V322.591L393.718 305.633V339.549Z" fill="#2FD3C7"/>
<path opacity="0.1" d="M364.287 322.591L335.05 305.633L364.287 288.675L393.718 305.633L364.287 322.591Z" fill="#42E8E0"/>
<path opacity="0.1" d="M364.287 322.591L336.22 306.413L335.05 307.193L364.287 324.151L393.718 307.193V305.633L364.287 322.591Z" fill="white"/>
</g>
<g opacity="0.1">
<path opacity="0.1" d="M249.875 302.319L220.638 285.361V319.277L249.875 336.235L279.306 319.277V285.361L249.875 302.319Z" fill="#42E8E0"/>
<path opacity="0.1" d="M249.875 336.235L220.638 319.277V285.361L249.875 302.319V336.235Z" fill="#42E8E0"/>
<path opacity="0.1" d="M279.306 319.277L249.875 336.235V302.319L279.306 285.361V319.277Z" fill="#2FD3C7"/>
<path opacity="0.1" d="M249.875 302.319L220.638 285.361L249.875 268.403L279.306 285.361L249.875 302.319Z" fill="#42E8E0"/>
<path opacity="0.1" d="M249.875 302.319L221.808 286.14L220.638 286.725L249.875 303.683L279.306 286.725L277.942 286.14L249.875 302.319Z" fill="white"/>
</g>
<g opacity="0.1">
<path opacity="0.1" d="M288.077 324.151L258.646 307.193V341.108L288.077 358.066L317.508 341.108V307.193L288.077 324.151Z" fill="#42E8E0"/>
<path opacity="0.1" d="M288.077 358.066L258.646 341.108V307.193L288.077 324.151V358.066Z" fill="#42E8E0"/>
<path opacity="0.1" d="M317.508 341.108L288.077 358.066V324.151L317.508 307.193V341.108Z" fill="#2FD3C7"/>
<path opacity="0.1" d="M288.077 324.15L258.646 307.192L288.077 290.234L317.508 307.192L288.077 324.15Z" fill="#42E8E0"/>
<path opacity="0.1" d="M288.077 324.15L260.01 307.777L258.646 308.557L288.077 325.514L317.508 308.557L316.144 307.777L288.077 324.15Z" fill="white"/>
</g>
<g opacity="0.1">
<path opacity="0.1" d="M326.279 345.786L296.848 328.828V362.744L326.279 379.702L355.516 362.744V328.828L326.279 345.786Z" fill="#42E8E0"/>
<path opacity="0.1" d="M326.279 379.702L296.848 362.744V328.828L326.279 345.786V379.702Z" fill="#42E8E0"/>
<path opacity="0.1" d="M355.516 362.744L326.279 379.702V345.786L355.516 328.828V362.744Z" fill="#2FD3C7"/>
<path opacity="0.1" d="M326.279 345.786L296.848 328.828L326.279 311.87L355.516 328.828L326.279 345.786Z" fill="#42E8E0"/>
<path opacity="0.1" d="M326.279 345.786L298.212 329.608L296.848 330.387L326.279 347.345L355.516 330.387V328.828L326.279 345.786Z" fill="white"/>
</g>
<g opacity="0.1">
<path opacity="0.1" d="M211.867 325.515L182.436 308.557V342.473L211.867 359.43L241.104 342.473V308.557L211.867 325.515Z" fill="#42E8E0"/>
<path opacity="0.1" d="M211.867 359.43L182.436 342.473V308.557L211.867 325.515V359.43Z" fill="#42E8E0"/>
<path opacity="0.1" d="M241.104 342.473L211.867 359.43V325.515L241.104 308.557V342.473Z" fill="#2FD3C7"/>
<path opacity="0.1" d="M211.867 325.514L182.436 308.557L211.867 291.599L241.104 308.557L211.867 325.514Z" fill="#42E8E0"/>
<path opacity="0.1" d="M211.867 325.514L183.605 309.336L182.436 310.116L211.867 327.074L241.104 310.116L239.934 309.336L211.867 325.514Z" fill="white"/>
</g>
<g opacity="0.1">
<path opacity="0.1" d="M249.875 347.345L220.638 330.387V364.303L249.875 381.261L279.306 364.303V330.387L249.875 347.345Z" fill="#42E8E0"/>
<path opacity="0.1" d="M249.875 381.261L220.638 364.303V330.387L249.875 347.345V381.261Z" fill="#42E8E0"/>
<path opacity="0.1" d="M279.306 364.303L249.875 381.261V347.345L279.306 330.387V364.303Z" fill="#2FD3C7"/>
<path opacity="0.1" d="M249.875 347.345L220.638 330.387L249.875 313.429L279.306 330.387L249.875 347.345Z" fill="#42E8E0"/>
<path opacity="0.1" d="M249.875 347.345L220.638 330.387V331.751L249.875 348.709L279.306 331.751L277.942 331.166L249.875 347.345Z" fill="white"/>
</g>
<g opacity="0.1">
<path opacity="0.1" d="M288.077 368.981L258.646 352.218V385.939L288.077 402.897L317.508 385.939V352.218L288.077 368.981Z" fill="#42E8E0"/>
<path opacity="0.1" d="M288.077 402.897L258.646 385.939V352.218L288.077 368.981V402.897Z" fill="#42E8E0"/>
<path opacity="0.1" d="M317.508 385.939L288.077 402.897V368.981L317.508 352.218V385.939Z" fill="#2FD3C7"/>
<path opacity="0.1" d="M288.077 368.981L258.646 352.218L288.077 335.26L317.508 352.218L288.077 368.981Z" fill="#42E8E0"/>
<path opacity="0.1" d="M288.077 368.981L258.646 352.218V353.583L288.077 370.541L317.508 353.583V352.218L288.077 368.981Z" fill="white"/>
</g>
<g opacity="0.1">
<path opacity="0.7" d="M364.482 317.522L344.406 306.022L364.482 294.327L384.557 306.022L364.482 317.522Z" fill="#18B2A3"/>
<path opacity="0.7" d="M211.867 320.251L191.791 308.556L211.867 297.056L231.748 308.556L211.867 320.251Z" fill="#18B2A3"/>
</g>
<g opacity="0.1">
<path opacity="0.1" d="M288.077 234.098L258.646 217.14V251.056L288.077 268.014L317.508 251.056V217.14L288.077 234.098Z" fill="#42E8E0"/>
<path opacity="0.1" d="M288.077 268.014L258.646 251.056V217.14L288.077 234.098V268.014Z" fill="#42E8E0"/>
<path opacity="0.1" d="M317.508 251.056L288.077 268.014V234.098L317.508 217.14V251.056Z" fill="#2FD3C7"/>
<path opacity="0.1" d="M288.077 234.097L258.646 217.14L288.077 200.182L317.508 217.14L288.077 234.097Z" fill="#42E8E0"/>
<path opacity="0.1" d="M288.077 234.098L258.646 217.14V218.504L288.077 235.462L317.508 218.504V217.14L288.077 234.098Z" fill="white"/>
</g>
<g opacity="0.1">
<path opacity="0.1" d="M326.279 255.734L296.848 238.971V272.692L326.279 289.65L355.516 272.692V238.971L326.279 255.734Z" fill="#42E8E0"/>
<path opacity="0.1" d="M326.279 289.65L296.848 272.692V238.971L326.279 255.734V289.65Z" fill="#42E8E0"/>
<path opacity="0.1" d="M355.516 272.692L326.279 289.65V255.734L355.516 238.971V272.692Z" fill="#2FD3C7"/>
<path opacity="0.1" d="M326.279 255.734L296.848 238.971L326.279 222.013L355.516 238.971L326.279 255.734Z" fill="#42E8E0"/>
<path opacity="0.1" d="M326.279 255.734L296.848 238.971V240.335L326.279 257.293L355.516 240.335V238.971L326.279 255.734Z" fill="white"/>
</g>
<g opacity="0.1">
<path opacity="0.1" d="M364.287 277.564L335.05 260.606V294.522L364.287 311.48L393.718 294.522V260.606L364.287 277.564Z" fill="#42E8E0"/>
<path opacity="0.1" d="M364.287 311.48L335.05 294.522V260.606L364.287 277.564V311.48Z" fill="#42E8E0"/>
<path opacity="0.1" d="M393.718 294.522L364.287 311.48V277.564L393.718 260.606V294.522Z" fill="#2FD3C7"/>
<path opacity="0.1" d="M364.287 277.564L335.05 260.606L364.287 243.648L393.718 260.606L364.287 277.564Z" fill="#42E8E0"/>
<path opacity="0.1" d="M364.287 277.564L335.05 260.606V262.166L364.287 279.124L393.718 262.166V260.606L364.287 277.564Z" fill="white"/>
</g>
<g opacity="0.1">
<path opacity="0.1" d="M249.875 257.293L220.638 240.335V274.251L249.875 291.209L279.306 274.251V240.335L249.875 257.293Z" fill="#42E8E0"/>
<path opacity="0.1" d="M249.875 291.209L220.638 274.251V240.335L249.875 257.293V291.209Z" fill="#42E8E0"/>
<path opacity="0.1" d="M279.306 274.251L249.875 291.209V257.293L279.306 240.335V274.251Z" fill="#2FD3C7"/>
<path opacity="0.1" d="M249.875 257.293L220.638 240.335L249.875 223.377L279.306 240.335L249.875 257.293Z" fill="#42E8E0"/>
<path opacity="0.1" d="M249.875 257.293L220.638 240.335V241.895L249.875 258.853L279.306 241.895V240.335L249.875 257.293Z" fill="white"/>
</g>
<g opacity="0.1">
<path opacity="0.1" d="M211.867 280.488L182.436 263.53V297.446L211.867 314.404L241.104 297.446V263.53L211.867 280.488Z" fill="#42E8E0"/>
<path opacity="0.1" d="M211.867 314.404L182.436 297.446V263.53L211.867 280.488V314.404Z" fill="#42E8E0"/>
<path opacity="0.1" d="M241.104 297.446L211.867 314.404V280.488L241.104 263.53V297.446Z" fill="#2FD3C7"/>
<path opacity="0.1" d="M211.867 280.488L182.436 263.53L211.867 246.572L241.104 263.53L211.867 280.488Z" fill="#42E8E0"/>
<path opacity="0.1" d="M211.867 280.488L182.436 263.53V265.09L211.867 282.048L241.104 265.09V263.53L211.867 280.488Z" fill="white"/>
</g>
</g>
<g opacity="0.2">
<g opacity="0.2">
<path opacity="0.2" d="M327.449 367.032L306.983 355.142C303.475 353.192 300.551 348.124 300.551 344.031V339.158C300.551 335.26 297.823 330.582 294.509 328.633L290.221 326.099L290.611 325.514L294.899 328.048C298.407 329.997 301.331 335.065 301.331 339.158V344.031C301.331 347.93 304.06 352.608 307.373 354.557L327.839 366.447L327.449 367.032Z" fill="#42E8E0"/>
<path opacity="0.2" d="M335.44 362.549L314.974 350.659C311.466 348.709 308.542 343.642 308.542 339.548V334.675C308.542 330.777 305.814 326.099 302.5 324.15L298.212 321.616L298.602 321.031L302.89 323.565C306.398 325.514 309.322 330.582 309.322 334.675V339.548C309.322 343.447 312.051 348.125 315.364 350.074L335.83 361.964L335.44 362.549Z" fill="#42E8E0"/>
<path opacity="0.2" d="M343.432 357.87L322.966 345.98C319.458 344.031 316.534 338.963 316.534 334.87V329.997C316.534 326.098 313.805 321.42 310.492 319.471L306.204 316.937L306.593 316.353L310.882 318.886C314.39 320.836 317.314 325.904 317.314 329.997V334.87C317.314 338.768 320.042 343.446 323.356 345.395L343.821 357.285L343.432 357.87Z" fill="#42E8E0"/>
<path opacity="0.2" d="M351.423 353.193L330.957 341.303C327.449 339.353 324.525 334.285 324.525 330.192V325.514C324.525 321.616 321.796 316.938 318.483 314.989L314.195 312.455L314.585 311.87L318.873 314.404C322.381 316.353 325.305 321.421 325.305 325.514V330.387C325.305 334.285 328.034 338.963 331.347 340.913L351.813 352.803L351.423 353.193Z" fill="#42E8E0"/>
<path opacity="0.2" d="M359.414 348.709L338.949 336.819C335.44 334.87 332.517 329.802 332.517 325.709V320.836C332.517 316.937 329.788 312.259 326.474 310.31L322.186 307.776L322.576 307.191L326.864 309.725C330.373 311.675 333.296 316.742 333.296 320.836V325.709C333.296 329.607 336.025 334.285 339.338 336.234L359.804 348.124L359.414 348.709Z" fill="#42E8E0"/>
<path opacity="0.2" d="M367.21 344.031L346.745 332.141C343.237 330.192 340.313 325.124 340.313 321.031V316.158C340.313 312.26 337.584 307.582 334.271 305.632L329.983 303.098L330.372 302.514L334.66 305.048C338.169 306.997 341.093 312.065 341.093 316.158V321.031C341.093 324.929 343.821 329.607 347.135 331.557L367.6 343.447L367.21 344.031Z" fill="#42E8E0"/>
<path opacity="0.2" d="M375.202 339.548L354.736 327.658C351.228 325.708 348.304 320.641 348.304 316.547V311.674C348.304 307.776 345.576 303.098 342.262 301.149L337.974 298.615L338.364 298.03L342.652 300.564C346.16 302.513 349.084 307.581 349.084 311.674V316.547C349.084 320.446 351.813 325.124 355.126 327.073L375.592 338.963L375.202 339.548Z" fill="#42E8E0"/>
<path opacity="0.2" d="M383.193 334.87L362.728 322.98C359.219 321.031 356.295 315.963 356.295 311.87V306.997C356.295 303.098 353.567 298.42 350.253 296.471L345.965 293.937L346.355 293.352L350.643 295.886C354.151 297.835 357.075 302.903 357.075 306.997V311.87C357.075 315.768 359.804 320.446 363.117 322.395L383.583 334.285L383.193 334.87Z" fill="#42E8E0"/>
<path opacity="0.2" d="M391.184 330.387L370.719 318.497C367.211 316.548 364.287 311.48 364.287 307.387V302.514C364.287 298.615 361.558 293.937 358.245 291.988L353.957 289.454L354.346 288.869L358.634 291.403C362.143 293.353 365.067 298.42 365.067 302.514V307.387C365.067 311.285 367.795 315.963 371.109 317.912L391.574 329.802L391.184 330.387Z" fill="#42E8E0"/>
<path opacity="0.2" d="M399.176 325.709L378.71 313.819C375.202 311.869 372.278 306.802 372.278 302.708V297.835C372.278 293.937 369.549 289.259 366.236 287.31L361.948 284.776L362.338 284.191L366.626 286.725C370.134 288.674 373.058 293.742 373.058 297.835V302.708C373.058 306.607 375.786 311.285 379.1 313.234L399.566 325.124L399.176 325.709Z" fill="#42E8E0"/>
<path opacity="0.2" d="M407.167 321.226L386.701 309.336C383.193 307.386 380.269 302.319 380.269 298.225V293.352C380.269 289.454 377.541 284.776 374.227 282.827L369.939 280.293L370.329 279.708L374.617 282.242C378.125 284.191 381.049 289.259 381.049 293.352V298.225C381.049 302.124 383.778 306.802 387.091 308.751L407.557 320.641L407.167 321.226Z" fill="#42E8E0"/>
<path opacity="0.2" d="M415.158 316.548L394.693 304.657C391.184 302.708 388.261 297.64 388.261 293.547V288.674C388.261 284.776 385.532 280.098 382.218 278.148L377.93 275.615L378.32 275.03L382.608 277.564C386.117 279.513 389.04 284.581 389.04 288.674V293.547C389.04 297.445 391.769 302.124 395.083 304.073L415.548 315.963L415.158 316.548Z" fill="#42E8E0"/>
<path opacity="0.2" d="M423.15 311.87L402.684 299.98C399.176 298.03 396.252 292.963 396.252 288.869V283.996C396.252 280.098 393.523 275.42 390.21 273.471L385.922 270.937L386.312 270.352L390.6 272.886C394.108 274.835 397.032 279.903 397.032 283.996V288.869C397.032 292.768 399.76 297.446 403.074 299.395L423.539 311.285L423.15 311.87Z" fill="#42E8E0"/>
<path opacity="0.2" d="M430.946 307.386L410.48 295.496C406.972 293.547 404.048 288.479 404.048 284.386V279.513C404.048 275.614 401.32 270.936 398.006 268.987L393.718 266.453L394.108 265.868L398.396 268.402C401.904 270.352 404.828 275.419 404.828 279.513V284.386C404.828 288.284 407.557 292.962 410.87 294.911L431.336 306.801L430.946 307.386Z" fill="#42E8E0"/>
<path opacity="0.2" d="M438.937 302.709L418.472 290.819C414.963 288.869 412.04 283.801 412.04 279.708V274.835C412.04 270.937 409.311 266.259 405.998 264.31L401.71 261.776L402.099 261.191L406.387 263.725C409.896 265.674 412.819 270.742 412.819 274.835V279.708C412.819 283.607 415.548 288.285 418.862 290.234L439.327 302.124L438.937 302.709Z" fill="#42E8E0"/>
<path opacity="0.2" d="M446.929 298.225L426.463 286.335C422.955 284.386 420.031 279.318 420.031 275.225V270.352C420.031 266.454 417.302 261.776 413.989 259.826L409.701 257.293L410.091 256.708L414.379 259.242C417.887 261.191 420.811 266.259 420.811 270.352V275.225C420.811 279.123 423.539 283.801 426.853 285.751L447.318 297.641L446.929 298.225Z" fill="#42E8E0"/>
<path opacity="0.2" d="M454.92 293.547L434.454 281.657C430.946 279.708 428.022 274.64 428.022 270.547V265.674C428.022 261.775 425.294 257.097 421.98 255.148L417.692 252.614L418.082 252.03L422.37 254.563C425.878 256.513 428.802 261.581 428.802 265.674V270.547C428.802 274.445 431.531 279.123 434.844 281.072L455.31 292.962L454.92 293.547Z" fill="#42E8E0"/>
<path opacity="0.2" d="M462.911 289.064L442.446 277.174C438.937 275.225 436.014 270.157 436.014 266.064V261.191C436.014 257.292 433.285 252.614 429.971 250.665L425.683 248.131L426.073 247.546L430.361 250.08C433.87 252.03 436.793 257.097 436.793 261.191V266.064C436.793 269.962 439.522 274.64 442.836 276.589L463.301 288.479L462.911 289.064Z" fill="#42E8E0"/>
<path opacity="0.2" d="M470.902 284.386L450.437 272.496C446.929 270.547 444.005 265.479 444.005 261.385V256.512C444.005 252.614 441.276 247.936 437.963 245.987L433.675 243.453L434.064 242.868L438.353 245.402C441.861 247.351 444.785 252.419 444.785 256.512V261.385C444.785 265.284 447.513 269.962 450.827 271.911L471.292 283.801L470.902 284.386Z" fill="#42E8E0"/>
<path opacity="0.2" d="M478.894 279.903L458.428 268.013C454.92 266.064 451.996 260.996 451.996 256.903V252.03C451.996 248.131 449.268 243.453 445.954 241.504L441.666 238.97L442.056 238.385L446.344 240.919C449.852 242.868 452.776 247.936 452.776 252.03V256.903C452.776 260.801 455.505 265.479 458.818 267.428L479.284 279.318L478.894 279.903Z" fill="#42E8E0"/>
</g>
<g opacity="0.2">
<path opacity="0.2" d="M248.12 367.032L247.731 366.447L268.196 354.557C271.51 352.608 274.238 347.93 274.238 344.031V339.158C274.238 335.065 277.162 330.192 280.67 328.048L284.958 325.514L285.348 326.099L281.06 328.633C277.747 330.582 275.018 335.26 275.018 339.158V344.031C275.018 348.124 272.094 352.997 268.586 355.142L248.12 367.032Z" fill="#42E8E0"/>
<path opacity="0.2" d="M240.129 362.549L239.739 361.964L260.205 350.074C263.518 348.125 266.247 343.447 266.247 339.548V334.675C266.247 330.582 269.171 325.709 272.679 323.565L276.967 321.031L277.357 321.616L273.069 324.15C269.755 326.099 267.027 330.777 267.027 334.675V339.548C267.027 343.642 264.103 348.515 260.595 350.659L240.129 362.549Z" fill="#42E8E0"/>
<path opacity="0.2" d="M232.138 357.87L231.748 357.285L252.214 345.395C255.527 343.446 258.256 338.768 258.256 334.87V329.997C258.256 325.904 261.179 321.031 264.688 318.886L268.976 316.353L269.366 316.937L265.078 319.471C261.764 321.42 259.035 326.098 259.035 329.997V334.87C259.035 338.963 256.112 343.836 252.603 345.98L232.138 357.87Z" fill="#42E8E0"/>
<path opacity="0.2" d="M224.147 353.193L223.757 352.608L244.222 340.718C247.536 338.769 250.264 334.091 250.264 330.192V325.514C250.264 321.421 253.188 316.548 256.697 314.404L260.985 311.87L261.374 312.455L257.086 314.989C253.773 316.938 251.044 321.616 251.044 325.514V330.387C251.044 334.48 248.12 339.353 244.612 341.497L224.147 353.193Z" fill="#42E8E0"/>
<path opacity="0.2" d="M216.35 348.709L215.96 348.124L236.426 336.234C239.739 334.285 242.468 329.607 242.468 325.709V320.836C242.468 316.742 245.392 311.869 248.9 309.725L253.188 307.191L253.578 307.776L249.29 310.31C245.976 312.259 243.248 316.937 243.248 320.836V325.709C243.248 329.802 240.324 334.675 236.816 336.819L216.35 348.709Z" fill="#42E8E0"/>
<path opacity="0.2" d="M208.359 344.031L207.969 343.447L228.435 331.557C231.748 329.607 234.477 324.929 234.477 321.031V316.158C234.477 312.065 237.4 307.192 240.909 305.048L245.197 302.514L245.587 303.098L241.299 305.632C237.985 307.582 235.256 312.26 235.256 316.158V321.031C235.256 325.124 232.333 329.997 228.824 332.141L208.359 344.031Z" fill="#42E8E0"/>
<path opacity="0.2" d="M200.367 339.548L199.978 338.963L220.443 327.073C223.757 325.124 226.485 320.446 226.485 316.547V311.674C226.485 307.581 229.409 302.708 232.917 300.564L237.205 298.03L237.595 298.615L233.307 301.149C229.994 303.098 227.265 307.776 227.265 311.674V316.547C227.265 320.641 224.341 325.514 220.833 327.658L200.367 339.548Z" fill="#42E8E0"/>
<path opacity="0.2" d="M192.376 334.87L191.986 334.285L212.452 322.395C215.765 320.446 218.494 315.768 218.494 311.87V306.997C218.494 302.903 221.418 298.03 224.926 295.886L229.214 293.352L229.604 293.937L225.316 296.471C222.002 298.42 219.274 303.098 219.274 306.997V311.87C219.274 315.963 216.35 320.836 212.842 322.98L192.376 334.87Z" fill="#42E8E0"/>
<path opacity="0.2" d="M184.385 330.387L183.995 329.802L204.461 317.912C207.774 315.963 210.503 311.285 210.503 307.387V302.514C210.503 298.42 213.426 293.547 216.935 291.403L221.223 288.869L221.613 289.454L217.325 291.988C214.011 293.937 211.282 298.615 211.282 302.514V307.387C211.282 311.48 208.359 316.353 204.85 318.497L184.385 330.387Z" fill="#42E8E0"/>
<path opacity="0.2" d="M176.394 325.709L176.004 325.124L196.469 313.234C199.783 311.285 202.511 306.607 202.511 302.708V297.835C202.511 293.742 205.435 288.869 208.944 286.725L213.232 284.191L213.621 284.776L209.333 287.31C206.02 289.259 203.291 293.937 203.291 297.835V302.708C203.291 306.802 200.367 311.674 196.859 313.819L176.394 325.709Z" fill="#42E8E0"/>
<path opacity="0.2" d="M168.402 321.226L168.012 320.641L188.478 308.751C191.791 306.802 194.52 302.124 194.52 298.225V293.352C194.52 289.259 197.444 284.386 200.952 282.242L205.24 279.708L205.63 280.293L201.342 282.827C198.029 284.776 195.3 289.454 195.3 293.352V298.225C195.3 302.319 192.376 307.192 188.868 309.336L168.402 321.226Z" fill="#42E8E0"/>
<path opacity="0.2" d="M160.411 316.548L160.021 315.963L180.487 304.073C183.8 302.124 186.529 297.445 186.529 293.547V288.674C186.529 284.581 189.452 279.708 192.961 277.564L197.249 275.03L197.639 275.615L193.351 278.148C190.037 280.098 187.308 284.776 187.308 288.674V293.547C187.308 297.64 184.385 302.513 180.876 304.657L160.411 316.548Z" fill="#42E8E0"/>
<path opacity="0.2" d="M152.614 311.87L152.225 311.285L172.69 299.395C176.004 297.446 178.732 292.768 178.732 288.869V283.996C178.732 279.903 181.656 275.03 185.164 272.886L189.452 270.352L189.842 270.937L185.554 273.471C182.241 275.42 179.512 280.098 179.512 283.996V288.869C179.512 292.963 176.588 297.836 173.08 299.98L152.614 311.87Z" fill="#42E8E0"/>
<path opacity="0.2" d="M144.623 307.386L144.233 306.801L164.699 294.911C168.012 292.962 170.741 288.284 170.741 284.386V279.513C170.741 275.419 173.665 270.546 177.173 268.402L181.461 265.868L181.851 266.453L177.563 268.987C174.25 270.936 171.521 275.614 171.521 279.513V284.386C171.521 288.479 168.597 293.352 165.089 295.496L144.623 307.386Z" fill="#42E8E0"/>
<path opacity="0.2" d="M136.632 302.709L136.242 302.124L156.708 290.234C160.021 288.285 162.75 283.607 162.75 279.708V274.835C162.75 270.742 165.673 265.869 169.182 263.725L173.47 261.191L173.86 261.776L169.572 264.31C166.258 266.259 163.529 270.937 163.529 274.835V279.708C163.529 283.801 160.606 288.674 157.097 290.819L136.632 302.709Z" fill="#42E8E0"/>
<path opacity="0.2" d="M128.641 298.225L128.251 297.641L148.716 285.751C152.03 283.801 154.759 279.123 154.759 275.225V270.352C154.759 266.259 157.682 261.386 161.191 259.242L165.479 256.708L165.868 257.293L161.58 259.826C158.267 261.776 155.538 266.454 155.538 270.352V275.225C155.538 279.318 152.615 284.191 149.106 286.335L128.641 298.225Z" fill="#42E8E0"/>
<path opacity="0.2" d="M120.649 293.547L120.26 292.962L140.725 281.072C144.039 279.123 146.767 274.445 146.767 270.547V265.674C146.767 261.581 149.691 256.708 153.199 254.563L157.487 252.03L157.877 252.614L153.589 255.148C150.276 257.097 147.547 261.775 147.547 265.674V270.547C147.547 274.64 144.623 279.513 141.115 281.657L120.649 293.547Z" fill="#42E8E0"/>
<path opacity="0.2" d="M112.658 289.064L112.268 288.479L132.734 276.589C136.047 274.64 138.776 269.962 138.776 266.064V261.191C138.776 257.097 141.7 252.224 145.208 250.08L149.496 247.546L149.886 248.131L145.598 250.665C142.284 252.614 139.556 257.292 139.556 261.191V266.064C139.556 270.157 136.632 275.03 133.124 277.174L112.658 289.064Z" fill="#42E8E0"/>
<path opacity="0.2" d="M104.667 284.386L104.277 283.801L124.742 271.911C128.056 269.962 130.785 265.284 130.785 261.385V256.512C130.785 252.419 133.708 247.546 137.217 245.402L141.505 242.868L141.895 243.453L137.606 245.987C134.293 247.936 131.564 252.614 131.564 256.512V261.385C131.564 265.479 128.641 270.352 125.132 272.496L104.667 284.386Z" fill="#42E8E0"/>
<path opacity="0.2" d="M96.6754 279.903L96.2856 279.318L116.751 267.428C120.065 265.479 122.793 260.801 122.793 256.903V252.03C122.793 247.936 125.717 243.063 129.225 240.919L133.513 238.385L133.903 238.97L129.615 241.504C126.302 243.453 123.573 248.131 123.573 252.03V256.903C123.573 260.996 120.649 265.869 117.141 268.013L96.6754 279.903Z" fill="#42E8E0"/>
</g>
<g opacity="0.2">
<g opacity="0.2">
<path opacity="0.2" d="M445.564 246.378V264.505L288.077 355.337L130.59 264.505V246.378H445.564Z" fill="url(#paint0_linear)"/>
<path opacity="0.2" d="M288.077 337.209L130.59 246.377L288.077 155.35L445.564 246.377L288.077 337.209Z" fill="#BCBEFF"/>
<path opacity="0.2" d="M288.077 335.065L132.539 245.208L130.59 246.377L288.077 337.209L445.564 246.377L443.615 245.208L288.077 335.065Z" fill="white"/>
</g>
</g>
</g>
<path d="M271.705 129.426C270.73 129.426 269.755 129.036 268.781 128.451L248.315 116.561L248.705 115.976L269.171 127.867C270.73 128.841 272.094 128.841 273.264 128.256C274.433 127.672 275.018 126.307 275.018 124.553V119.68C275.018 117.731 275.798 116.171 276.967 115.392C278.331 114.612 279.891 114.807 281.645 115.782L285.933 118.316L285.543 118.9L281.255 116.366C279.696 115.392 278.331 115.392 277.162 115.976C275.993 116.561 275.408 117.926 275.408 119.68V124.748C275.408 126.697 274.628 128.256 273.459 129.036C272.874 129.231 272.289 129.426 271.705 129.426Z" fill="#42E8E0"/>
<path d="M263.713 134.104C262.739 134.104 261.764 133.715 260.79 133.13L240.324 121.24L240.714 120.655L261.179 132.545C262.739 133.52 264.103 133.52 265.273 132.935C266.442 132.35 267.027 130.986 267.027 129.231V124.358C267.027 122.409 267.806 120.85 268.976 120.07C270.34 119.291 271.899 119.485 273.654 120.46L277.942 122.994L277.552 123.579L273.264 121.045C271.705 120.07 270.34 120.07 269.171 120.655C268.001 121.24 267.417 122.604 267.417 124.358V129.231C267.417 131.181 266.637 132.74 265.467 133.52C264.883 133.909 264.298 134.104 263.713 134.104Z" fill="#42E8E0"/>
<path d="M255.722 138.587C254.747 138.587 253.773 138.197 252.798 137.613L232.333 125.723L232.723 125.138L253.188 137.028C254.747 138.002 256.112 138.002 257.281 137.418C258.451 136.833 259.035 135.469 259.035 133.714V128.841C259.035 126.892 259.815 125.333 260.984 124.553C262.349 123.773 263.908 123.968 265.662 124.943L269.95 127.477L269.561 128.062L265.273 125.528C263.713 124.553 262.349 124.553 261.179 125.138C260.01 125.723 259.425 127.087 259.425 128.841V133.714C259.425 135.663 258.646 137.223 257.476 138.002C257.086 138.392 256.307 138.587 255.722 138.587Z" fill="#42E8E0"/>
<path d="M247.731 143.265C246.756 143.265 245.781 142.875 244.807 142.29L224.341 130.4L224.731 129.815L245.197 141.705C246.756 142.68 248.12 142.68 249.29 142.095C250.459 141.51 251.044 140.146 251.044 138.392V133.519C251.044 131.57 251.824 130.01 252.993 129.231C254.358 128.451 255.917 128.646 257.671 129.62L261.959 132.154L261.569 132.739L257.281 130.205C255.722 129.231 254.358 129.231 253.188 129.815C252.019 130.4 251.434 131.765 251.434 133.519V138.392C251.434 140.341 250.654 141.9 249.485 142.68C249.095 143.07 248.51 143.265 247.731 143.265Z" fill="#42E8E0"/>
<path d="M239.739 147.748C238.765 147.748 237.79 147.358 236.816 146.774L216.35 135.079L216.74 134.494L237.206 146.384C238.765 147.358 240.129 147.358 241.299 146.774C242.468 146.189 243.053 144.824 243.053 143.07V138.197C243.053 136.248 243.832 134.689 245.002 133.909C246.366 133.129 247.926 133.324 249.68 134.299L253.968 136.833L253.578 137.418L249.29 134.884C247.731 133.909 246.366 133.909 245.197 134.494C244.027 135.079 243.443 136.443 243.443 138.197V143.07C243.443 145.019 242.663 146.579 241.494 147.358C241.104 147.553 240.519 147.748 239.739 147.748Z" fill="#42E8E0"/>
<path d="M231.748 152.426C230.773 152.426 229.799 152.036 228.824 151.451L208.359 139.561L208.749 138.977L229.214 150.867C230.773 151.841 232.138 151.841 233.307 151.256C234.477 150.672 235.061 149.307 235.061 147.553V142.68C235.061 140.731 235.841 139.171 237.01 138.392C238.375 137.612 239.934 137.807 241.688 138.782L245.976 141.316L245.587 141.9L241.299 139.366C239.739 138.392 238.375 138.392 237.205 138.977C236.036 139.561 235.451 140.926 235.451 142.68V147.553C235.451 149.502 234.672 151.061 233.502 151.841C233.112 152.231 232.528 152.426 231.748 152.426Z" fill="#42E8E0"/>
<path d="M223.952 156.909C222.977 156.909 222.002 156.52 221.028 155.935L200.367 144.24L200.757 143.655L221.223 155.545C222.782 156.52 224.146 156.52 225.316 155.935C226.485 155.35 227.07 153.986 227.07 152.231V147.358C227.07 145.409 227.85 143.85 229.019 143.07C230.384 142.291 231.943 142.485 233.697 143.46L237.985 145.994L237.595 146.579L233.307 144.045C231.748 143.07 230.384 143.07 229.214 143.655C228.045 144.24 227.46 145.604 227.46 147.358V152.231C227.46 154.181 226.68 155.74 225.511 156.52C225.121 156.714 224.536 156.909 223.952 156.909Z" fill="#42E8E0"/>
<path d="M215.96 161.587C214.986 161.587 214.011 161.197 213.037 160.613L192.571 148.723L192.961 148.138L213.426 160.028C214.986 161.003 216.35 161.003 217.52 160.418C218.689 159.833 219.274 158.469 219.274 156.714V151.841C219.274 149.892 220.053 148.333 221.223 147.553C222.587 146.773 224.146 146.968 225.901 147.943L230.189 150.477L229.799 151.062L225.511 148.528C223.952 147.553 222.587 147.553 221.418 148.138C220.248 148.723 219.664 150.087 219.664 151.841V156.714C219.664 158.664 218.884 160.223 217.714 161.003C217.13 161.392 216.545 161.587 215.96 161.587Z" fill="#42E8E0"/>
<path d="M207.969 166.07C206.994 166.07 206.02 165.68 205.045 165.096L184.58 153.206L184.97 152.621L205.435 164.511C206.994 165.485 208.359 165.485 209.528 164.901C210.698 164.316 211.282 162.951 211.282 161.197V156.324C211.282 154.375 212.062 152.816 213.232 152.036C214.596 151.256 216.155 151.451 217.909 152.426L222.197 154.96L221.808 155.545L217.52 153.011C215.96 152.036 214.596 152.036 213.426 152.621C212.257 153.206 211.672 154.57 211.672 156.324V161.197C211.672 163.146 210.893 164.706 209.723 165.485C209.138 166.07 208.554 166.07 207.969 166.07Z" fill="#42E8E0"/>
<path d="M199.978 170.749C199.003 170.749 198.029 170.359 197.054 169.774L176.589 157.884L176.978 157.299L197.444 169.189C199.003 170.164 200.368 170.164 201.537 169.579C202.706 168.994 203.291 167.63 203.291 165.876V161.003C203.291 159.054 204.071 157.494 205.24 156.714C206.605 155.935 208.164 156.13 209.918 157.104L214.206 159.638L213.816 160.223L209.528 157.689C207.969 156.714 206.605 156.714 205.435 157.299C204.266 157.884 203.681 159.248 203.681 161.003V165.876C203.681 167.825 202.901 169.384 201.732 170.164C201.147 170.554 200.562 170.749 199.978 170.749Z" fill="#42E8E0"/>
<path d="M191.986 175.231C191.012 175.231 190.037 174.842 189.063 174.257L168.597 162.367L168.987 161.782L189.453 173.672C191.012 174.647 192.376 174.647 193.546 174.062C194.715 173.477 195.3 172.113 195.3 170.359V165.68C195.3 163.731 196.08 162.172 197.249 161.392C198.613 160.613 200.173 160.807 201.927 161.782L206.215 164.316L205.825 164.901L201.537 162.367C199.978 161.392 198.613 161.392 197.444 161.977C196.274 162.562 195.69 163.926 195.69 165.68V170.553C195.69 172.503 194.91 174.062 193.741 174.842C193.156 175.231 192.571 175.231 191.986 175.231Z" fill="#42E8E0"/>
<path d="M183.995 179.91C183.02 179.91 182.046 179.52 181.071 178.935L160.606 167.045L160.996 166.461L181.461 178.351C183.02 179.325 184.385 179.325 185.554 178.74C186.724 178.156 187.309 176.791 187.309 175.037V170.164C187.309 168.215 188.088 166.656 189.258 165.876C190.622 165.096 192.181 165.291 193.935 166.266L198.223 168.8L197.834 169.384L193.546 166.85C191.986 165.876 190.622 165.876 189.453 166.461C188.283 167.045 187.698 168.41 187.698 170.164V175.037C187.698 176.986 186.919 178.546 185.749 179.325C185.359 179.715 184.775 179.91 183.995 179.91Z" fill="#42E8E0"/>
<path d="M176.004 184.393C175.029 184.393 174.055 184.003 173.08 183.418L152.615 171.528L153.004 170.943L173.47 183.028C175.029 184.003 176.394 184.003 177.563 183.418C178.732 182.833 179.317 181.469 179.317 179.715V174.842C179.317 172.893 180.097 171.333 181.266 170.554C182.631 169.774 184.19 169.969 185.944 170.943L190.232 173.477L189.842 174.062L185.554 171.528C183.995 170.554 182.631 170.554 181.461 171.138C180.292 171.723 179.707 173.088 179.707 174.842V179.715C179.707 181.664 178.927 183.223 177.758 184.003C177.368 184.393 176.783 184.393 176.004 184.393Z" fill="#42E8E0"/>
<path d="M168.012 189.071C167.038 189.071 166.063 188.681 165.089 188.096L144.623 176.206L145.013 175.621L165.479 187.511C167.038 188.486 168.402 188.486 169.572 187.901C170.741 187.316 171.326 185.952 171.326 184.198V179.325C171.326 177.376 172.106 175.816 173.275 175.037C174.639 174.257 176.199 174.452 177.953 175.426L182.241 177.96L181.851 178.545L177.563 176.011C176.004 175.037 174.639 175.037 173.47 175.621C172.301 176.206 171.716 177.57 171.716 179.325V184.198C171.716 186.147 170.936 187.706 169.767 188.486C169.377 188.876 168.792 189.071 168.012 189.071Z" fill="#42E8E0"/>
<path d="M160.216 193.554C159.241 193.554 158.267 193.164 157.292 192.58L136.827 180.69L137.217 180.105L157.682 191.995C159.241 192.969 160.606 192.969 161.775 192.385C162.945 191.8 163.53 190.436 163.53 188.681V183.808C163.53 181.859 164.309 180.3 165.479 179.52C166.843 178.74 168.402 178.935 170.156 179.91L174.444 182.444L174.055 183.029L169.572 180.69C168.012 179.715 166.648 179.715 165.479 180.3C164.309 180.885 163.724 182.249 163.724 184.003V188.876C163.724 190.825 162.945 192.385 161.775 193.164C161.385 193.554 160.801 193.554 160.216 193.554Z" fill="#42E8E0"/>
<path d="M152.225 198.232C151.25 198.232 150.276 197.842 149.301 197.257L128.836 185.367L129.225 184.783L149.691 196.673C151.25 197.647 152.615 197.647 153.784 197.063C154.954 196.478 155.538 195.113 155.538 193.359V188.486C155.538 186.537 156.318 184.978 157.487 184.198C158.852 183.418 160.411 183.613 162.165 184.588L166.453 187.122L166.063 187.706L161.58 185.172C160.021 184.198 158.657 184.198 157.487 184.783C156.318 185.367 155.733 186.732 155.733 188.486V193.359C155.733 195.308 154.954 196.868 153.784 197.647C153.394 198.037 152.81 198.232 152.225 198.232Z" fill="#42E8E0"/>
<path d="M144.233 202.715C143.259 202.715 142.284 202.325 141.31 201.741L120.844 190.046L121.234 189.461L141.7 201.351C143.259 202.326 144.623 202.325 145.793 201.741C146.962 201.156 147.547 199.792 147.547 198.037V193.164C147.547 191.215 148.327 189.656 149.496 188.876C150.86 188.096 152.42 188.291 154.174 189.266L158.462 191.8L158.072 192.385L153.784 189.851C152.225 188.876 150.86 188.876 149.691 189.461C148.522 190.046 147.937 191.41 147.937 193.164V198.037C147.937 199.986 147.157 201.546 145.988 202.326C145.403 202.715 144.818 202.715 144.233 202.715Z" fill="#42E8E0"/>
<path d="M136.242 207.393C135.268 207.393 134.293 207.004 133.318 206.419L112.853 194.529L113.243 193.944L133.708 205.834C135.268 206.809 136.632 206.809 137.801 206.224C138.971 205.639 139.556 204.275 139.556 202.52V197.647C139.556 195.698 140.335 194.139 141.505 193.359C142.869 192.58 144.428 192.775 146.182 193.749L150.47 196.283L150.081 196.868L145.793 194.334C144.233 193.359 142.869 193.359 141.7 193.944C140.53 194.529 139.945 195.893 139.945 197.647V202.52C139.945 204.47 139.166 206.029 137.996 206.809C137.412 207.198 136.827 207.393 136.242 207.393Z" fill="#42E8E0"/>
<path d="M128.251 211.876C127.276 211.876 126.302 211.487 125.327 210.902L104.862 199.012L105.251 198.427L125.717 210.317C127.276 211.292 128.641 211.292 129.81 210.707C130.98 210.122 131.564 208.758 131.564 207.003V202.13C131.564 200.181 132.344 198.622 133.513 197.842C134.878 197.063 136.437 197.257 138.191 198.232L142.479 200.766L142.089 201.351L137.801 198.817C136.242 197.842 134.878 197.842 133.708 198.427C132.539 199.012 131.954 200.376 131.954 202.13V207.003C131.954 208.953 131.174 210.512 130.005 211.292C129.42 211.876 128.836 211.876 128.251 211.876Z" fill="#42E8E0"/>
<path d="M120.26 216.555C119.285 216.555 118.31 216.165 117.336 215.58L96.8703 203.69L97.2601 203.105L117.726 214.995C119.285 215.97 120.649 215.97 121.819 215.385C122.988 214.8 123.573 213.436 123.573 211.682V206.809C123.573 204.859 124.353 203.3 125.522 202.52C126.886 201.741 128.446 201.936 130.2 202.91L134.488 205.444L134.098 206.029L129.81 203.495C128.251 202.52 126.886 202.52 125.717 203.105C124.548 203.69 123.963 205.054 123.963 206.809V211.682C123.963 213.631 123.183 215.19 122.014 215.97C121.624 216.36 120.844 216.555 120.26 216.555Z" fill="#42E8E0"/>
<path d="M304.254 129.816C303.67 129.816 303.085 129.621 302.5 129.426C301.136 128.646 300.551 127.087 300.551 125.138V120.265C300.551 118.51 299.966 117.146 298.797 116.561C297.627 115.976 296.263 116.171 294.704 116.951L290.416 119.485L290.026 118.9L294.314 116.366C296.068 115.392 297.822 115.197 298.992 115.976C300.356 116.756 300.941 118.315 300.941 120.265V125.138C300.941 126.892 301.526 128.256 302.695 128.841C303.865 129.426 305.229 129.231 306.788 128.451L327.254 116.561L327.644 117.146L307.178 129.036C306.204 129.621 305.229 129.816 304.254 129.816Z" fill="#42E8E0"/>
<path d="M312.246 134.494C311.661 134.494 311.076 134.299 310.492 134.104C309.127 133.324 308.543 131.765 308.543 129.815V124.748C308.543 122.993 307.958 121.629 306.788 121.044C305.619 120.459 304.254 120.654 302.695 121.434L298.407 123.968L298.017 123.383L302.305 120.849C304.06 119.875 305.814 119.68 306.983 120.459C308.348 121.239 308.932 122.798 308.932 124.748V129.621C308.932 131.375 309.517 132.739 310.687 133.324C311.856 133.909 313.22 133.714 314.78 132.934L335.245 121.044L335.635 121.629L315.169 133.519C314.195 134.104 313.22 134.494 312.246 134.494Z" fill="#42E8E0"/>
<path d="M320.237 138.977C319.652 138.977 319.068 138.782 318.483 138.587C317.119 137.808 316.534 136.248 316.534 134.299V129.426C316.534 127.672 315.949 126.307 314.78 125.723C313.61 125.138 312.246 125.333 310.686 126.112L306.398 128.646L306.009 128.062L310.297 125.528C312.051 124.553 313.805 124.358 314.975 125.138C316.339 125.918 316.924 127.477 316.924 129.426V134.299C316.924 136.053 317.508 137.418 318.678 138.002C319.847 138.587 321.212 138.392 322.771 137.613L343.236 125.723L343.626 126.307L323.161 138.197C322.186 138.782 321.212 138.977 320.237 138.977Z" fill="#42E8E0"/>
<path d="M328.228 143.655C327.644 143.655 327.059 143.46 326.474 143.265C325.11 142.485 324.525 140.926 324.525 138.977V134.104C324.525 132.349 323.94 130.985 322.771 130.4C321.602 129.815 320.237 130.01 318.678 130.79L314.39 133.324L314 132.739L318.288 130.205C320.042 129.231 321.796 129.036 322.966 129.815C324.33 130.595 324.915 132.154 324.915 134.104V138.977C324.915 140.731 325.5 142.095 326.669 142.68C327.839 143.265 329.203 143.07 330.762 142.29L351.228 130.4L351.618 130.985L331.152 142.875C330.178 143.265 329.203 143.655 328.228 143.655Z" fill="#42E8E0"/>
<path d="M336.22 148.138C335.635 148.138 335.05 147.943 334.466 147.748C333.101 146.968 332.516 145.409 332.516 143.46V138.392C332.516 136.638 331.932 135.273 330.762 134.688C329.593 134.104 328.228 134.299 326.669 135.078L322.381 137.612L321.991 137.027L326.279 134.493C328.033 133.519 329.788 133.324 330.957 134.104C332.322 134.883 332.906 136.443 332.906 138.392V143.265C332.906 145.019 333.491 146.384 334.66 146.968C335.83 147.553 337.194 147.358 338.754 146.578L359.219 134.688L359.609 135.273L339.143 147.358C338.169 147.943 337.194 148.138 336.22 148.138Z" fill="#42E8E0"/>
<path d="M344.211 152.816C343.626 152.816 343.042 152.621 342.457 152.426C341.092 151.646 340.508 150.087 340.508 148.138V143.265C340.508 141.511 339.923 140.146 338.754 139.561C337.584 138.977 336.22 139.172 334.66 139.951L330.372 142.485L329.983 141.9L334.271 139.367C336.025 138.392 337.779 138.197 338.948 138.977C340.313 139.756 340.898 141.316 340.898 143.265V148.138C340.898 149.892 341.482 151.257 342.652 151.841C343.821 152.426 345.186 152.231 346.745 151.451L367.21 139.561L367.6 140.146L347.135 152.036C346.16 152.426 344.991 152.816 344.211 152.816Z" fill="#42E8E0"/>
<path d="M352.202 157.299C351.618 157.299 351.033 157.104 350.448 156.909C349.084 156.129 348.499 154.57 348.499 152.621V147.748C348.499 145.994 347.914 144.629 346.745 144.044C345.575 143.46 344.211 143.655 342.652 144.434L338.364 146.968L337.974 146.383L342.262 143.849C344.016 142.875 345.77 142.68 346.94 143.46C348.304 144.239 348.889 145.799 348.889 147.748V152.621C348.889 154.375 349.474 155.739 350.643 156.324C351.813 156.909 353.177 156.714 354.736 155.934L375.202 144.044L375.592 144.629L355.126 156.519C353.957 157.104 352.982 157.299 352.202 157.299Z" fill="#42E8E0"/>
<path d="M360.194 161.977C359.609 161.977 359.024 161.782 358.439 161.587C357.075 160.808 356.49 159.248 356.49 157.299V152.426C356.49 150.672 355.906 149.307 354.736 148.723C353.567 148.138 352.202 148.333 350.643 149.112L346.355 151.646L345.965 151.062L350.253 148.528C352.007 147.553 353.762 147.358 354.931 148.138C356.295 148.918 356.88 150.477 356.88 152.426V157.299C356.88 159.053 357.465 160.418 358.634 161.002C359.804 161.587 361.168 161.392 362.727 160.613L383.193 148.723L383.583 149.307L363.117 161.197C361.948 161.587 360.973 161.977 360.194 161.977Z" fill="#42E8E0"/>
<path d="M367.99 166.46C367.405 166.46 366.821 166.265 366.236 166.07C364.871 165.291 364.287 163.731 364.287 161.782V156.909C364.287 155.155 363.702 153.79 362.533 153.206C361.363 152.621 359.999 152.816 358.439 153.596L354.151 156.13L353.762 155.545L358.05 153.011C359.804 152.036 361.558 151.841 362.727 152.621C364.092 153.401 364.677 154.96 364.677 156.909V161.782C364.677 163.536 365.261 164.901 366.431 165.486C367.6 166.07 368.965 165.875 370.524 165.096L390.989 153.206L391.379 153.791L371.109 165.681C369.939 166.265 368.965 166.46 367.99 166.46Z" fill="#42E8E0"/>
<path d="M375.981 171.138C375.397 171.138 374.812 170.944 374.227 170.749C372.863 169.969 372.278 168.41 372.278 166.46V161.587C372.278 159.833 371.693 158.469 370.524 157.884C369.354 157.299 367.99 157.494 366.431 158.274L362.143 160.808L361.753 160.223L366.041 157.689C367.795 156.714 369.549 156.52 370.719 157.299C372.083 158.079 372.668 159.638 372.668 161.587V166.46C372.668 168.215 373.253 169.579 374.422 170.164C375.592 170.749 376.956 170.554 378.515 169.774L398.981 157.884L399.371 158.469L378.905 170.359C377.93 170.749 376.956 171.138 375.981 171.138Z" fill="#42E8E0"/>
<path d="M383.973 175.622C383.388 175.622 382.803 175.427 382.219 175.232C380.854 174.452 380.269 172.893 380.269 170.944V166.071C380.269 164.316 379.685 162.952 378.515 162.367C377.346 161.782 375.981 161.977 374.422 162.757L370.134 165.291L369.744 164.706L374.032 162.172C375.786 161.198 377.541 161.003 378.71 161.782C380.074 162.562 380.659 164.121 380.659 166.071V170.944C380.659 172.698 381.244 174.062 382.413 174.647C383.583 175.232 384.947 175.037 386.507 174.257L406.972 162.367L407.362 162.952L386.896 174.842C385.922 175.427 384.947 175.622 383.973 175.622Z" fill="#42E8E0"/>
<path d="M391.964 180.3C391.379 180.3 390.795 180.105 390.21 179.91C388.845 179.13 388.261 177.571 388.261 175.622V170.749C388.261 168.995 387.676 167.63 386.507 167.045C385.337 166.461 383.973 166.656 382.413 167.435L378.125 169.969L377.736 169.384L382.024 166.85C383.778 165.876 385.532 165.681 386.701 166.461C388.066 167.24 388.65 168.8 388.65 170.749V175.427C388.65 177.181 389.235 178.546 390.405 179.13C391.574 179.715 392.939 179.52 394.498 178.74L414.963 166.85L415.353 167.435L394.888 179.325C393.913 179.91 392.939 180.3 391.964 180.3Z" fill="#42E8E0"/>
<path d="M399.955 184.783C399.371 184.783 398.786 184.588 398.201 184.393C396.837 183.613 396.252 182.054 396.252 180.105V175.232C396.252 173.477 395.667 172.113 394.498 171.528C393.328 170.943 391.964 171.138 390.405 171.918L386.117 174.452L385.727 173.867L390.015 171.333C391.769 170.359 393.523 170.164 394.693 170.943C396.057 171.723 396.642 173.283 396.642 175.232V180.105C396.642 181.859 397.227 183.223 398.396 183.808C399.565 184.393 400.93 184.198 402.489 183.418L422.955 171.528L423.344 172.113L402.879 184.003C401.904 184.588 400.93 184.783 399.955 184.783Z" fill="#42E8E0"/>
<path d="M407.947 189.46C407.362 189.46 406.777 189.266 406.192 189.071C404.828 188.291 404.243 186.732 404.243 184.782V179.909C404.243 178.155 403.659 176.791 402.489 176.206C401.32 175.621 399.955 175.816 398.396 176.596L394.108 179.13L393.718 178.545L398.006 176.011C399.76 175.036 401.515 174.842 402.684 175.621C404.048 176.401 404.633 177.96 404.633 179.909V184.782C404.633 186.537 405.218 187.901 406.387 188.486C407.557 189.071 408.921 188.876 410.48 188.096L430.946 176.206L431.336 176.791L410.87 188.681C409.896 189.071 408.921 189.46 407.947 189.46Z" fill="#42E8E0"/>
<path d="M415.938 193.944C415.353 193.944 414.769 193.749 414.184 193.554C412.819 192.775 412.235 191.215 412.235 189.266V184.393C412.235 182.639 411.65 181.274 410.481 180.69C409.311 180.105 407.947 180.3 406.387 181.079L402.099 183.613L401.71 183.029L405.998 180.495C407.752 179.52 409.506 179.325 410.675 180.105C412.04 180.885 412.625 182.444 412.625 184.393V189.266C412.625 191.02 413.209 192.385 414.379 192.97C415.548 193.554 416.913 193.359 418.472 192.58L438.937 180.69L439.327 181.274L418.862 193.164C417.887 193.749 416.718 193.944 415.938 193.944Z" fill="#42E8E0"/>
<path d="M423.929 198.622C423.344 198.622 422.76 198.427 422.175 198.232C420.811 197.452 420.226 195.893 420.226 193.944V189.071C420.226 187.317 419.641 185.952 418.472 185.367C417.302 184.783 415.938 184.978 414.379 185.757L410.091 188.291L409.701 187.706L413.989 185.172C415.743 184.198 417.497 184.003 418.667 184.783C420.031 185.562 420.616 187.122 420.616 189.071V193.944C420.616 195.698 421.2 197.062 422.37 197.647C423.539 198.232 424.904 198.037 426.463 197.257L446.929 185.367L447.318 185.952L426.853 197.842C425.683 198.232 424.709 198.622 423.929 198.622Z" fill="#42E8E0"/>
<path d="M431.921 203.105C431.336 203.105 430.751 202.91 430.166 202.715C428.802 201.935 428.217 200.376 428.217 198.427V193.554C428.217 191.799 427.632 190.435 426.463 189.85C425.294 189.266 423.929 189.46 422.37 190.24L418.082 192.774L417.692 192.189L421.98 189.655C423.734 188.681 425.488 188.486 426.658 189.266C428.022 190.045 428.607 191.605 428.607 193.554V198.427C428.607 200.181 429.192 201.545 430.361 202.13C431.531 202.715 432.895 202.52 434.454 201.74L454.92 189.85L455.31 190.435L434.844 202.325C433.675 202.91 432.7 203.105 431.921 203.105Z" fill="#42E8E0"/>
<path d="M439.717 207.783C439.132 207.783 438.547 207.588 437.963 207.393C436.598 206.613 436.014 205.054 436.014 203.105V198.232C436.014 196.478 435.429 195.113 434.259 194.529C433.09 193.944 431.726 194.139 430.166 194.918L425.878 197.452L425.488 196.868L429.776 194.334C431.531 193.359 433.285 193.164 434.454 193.944C435.819 194.723 436.403 196.283 436.403 198.232V203.105C436.403 204.859 436.988 206.224 438.158 206.808C439.327 207.393 440.691 207.198 442.251 206.419L462.716 194.529L463.106 195.113L442.641 207.003C441.666 207.393 440.691 207.783 439.717 207.783Z" fill="#42E8E0"/>
<path d="M447.708 212.266C447.123 212.266 446.539 212.071 445.954 211.876C444.59 211.097 444.005 209.537 444.005 207.588V202.715C444.005 200.961 443.42 199.596 442.251 199.012C441.081 198.427 439.717 198.622 438.158 199.401L433.87 201.935L433.48 201.351L437.768 198.817C439.522 197.842 441.276 197.647 442.446 198.427C443.81 199.207 444.395 200.766 444.395 202.715V207.588C444.395 209.342 444.979 210.707 446.149 211.292C447.318 211.876 448.683 211.681 450.242 210.902L470.708 199.012L471.097 199.596L450.632 211.486C449.657 212.071 448.683 212.266 447.708 212.266Z" fill="#42E8E0"/>
<path d="M455.699 216.944C455.115 216.944 454.53 216.749 453.945 216.555C452.581 215.775 451.996 214.216 451.996 212.266V207.393C451.996 205.639 451.411 204.275 450.242 203.69C449.073 203.105 447.708 203.3 446.149 204.08L441.861 206.614L441.471 206.029L445.759 203.495C447.513 202.52 449.267 202.325 450.437 203.105C451.801 203.885 452.386 205.444 452.386 207.393V212.266C452.386 214.021 452.971 215.385 454.14 215.97C455.31 216.555 456.674 216.36 458.233 215.58L478.699 203.69L479.089 204.275L458.623 216.165C457.649 216.555 456.674 216.944 455.699 216.944Z" fill="#42E8E0"/>
<path d="M445.564 207.782V226.105L288.077 316.937L130.59 226.105V207.782H445.564Z" fill="url(#paint1_linear)"/>
<path d="M288.077 298.81L130.59 207.783L288.077 116.951L445.564 207.783L288.077 298.81Z" fill="#BCBEFF"/>
<path d="M288.077 296.666L132.539 206.808L130.59 207.783L288.077 298.81L445.564 207.783L443.615 206.808L288.077 296.666Z" fill="white"/>
<path d="M288.077 277.759L167.038 207.978L288.077 138.002L409.116 207.978L288.077 277.759Z" fill="#0F054C"/>
<path opacity="0.5" d="M288.077 277.759L167.038 207.978L288.077 138.002L409.116 207.978L288.077 277.759Z" fill="url(#paint2_linear)"/>
<path opacity="0.5" d="M288.077 120.265L409.116 190.24V207.978L288.077 138.002V120.265Z" fill="url(#paint3_linear)"/>
<path opacity="0.5" d="M288.077 138.002L167.038 207.978V190.24L288.077 120.265V138.002Z" fill="url(#paint4_linear)"/>
<path opacity="0.5" d="M288.077 260.216L167.038 190.24L288.077 120.265L409.116 190.24L288.077 260.216Z" fill="url(#paint5_linear)"/>
<path opacity="0.5" d="M288.077 218.113L239.739 190.24L288.077 162.367L336.415 190.24L288.077 218.113Z" fill="#42E8E0"/>
<path opacity="0.5" d="M288.077 164.901L334.271 191.604L336.415 190.24L288.077 162.367L239.739 190.24L241.883 191.604L288.077 164.901Z" fill="#42E8E0"/>
<path opacity="0.5" d="M288.077 260.217V277.759L409.116 207.978V190.241L288.077 260.217Z" fill="url(#paint6_linear)"/>
<path opacity="0.5" d="M167.038 190.241V207.978L288.077 277.759V260.217L167.038 190.241Z" fill="url(#paint7_linear)"/>
<path opacity="0.8" d="M288.077 258.267L168.597 189.266L167.038 190.241L288.077 260.217L409.116 190.241L407.557 189.266L288.077 258.267Z" fill="#42E8E0"/>
<path d="M327.449 338.379L306.983 326.489C303.475 324.54 300.551 319.472 300.551 315.378V310.505C300.551 306.607 297.823 301.929 294.509 299.98L290.221 297.446L290.611 296.861L294.899 299.395C298.407 301.344 301.331 306.412 301.331 310.505V315.378C301.331 319.277 304.06 323.955 307.373 325.904L327.839 337.794L327.449 338.379Z" fill="#42E8E0"/>
<path d="M335.44 333.701L314.975 321.811C311.466 319.862 308.542 314.794 308.542 310.701V306.022C308.542 302.124 305.814 297.446 302.5 295.497L298.212 292.963L298.602 292.378L302.89 294.912C306.398 296.861 309.322 301.929 309.322 306.022V310.895C309.322 314.794 312.051 319.472 315.364 321.421L335.83 333.311L335.44 333.701Z" fill="#42E8E0"/>
<path d="M343.431 329.217L322.966 317.327C319.458 315.378 316.534 310.31 316.534 306.217V301.344C316.534 297.445 313.805 292.767 310.492 290.818L306.204 288.284L306.594 287.699L310.882 290.233C314.39 292.183 317.314 297.25 317.314 301.344V306.217C317.314 310.115 320.042 314.793 323.356 316.742L343.821 328.632L343.431 329.217Z" fill="#42E8E0"/>
<path d="M351.423 324.54L330.957 312.65C327.449 310.701 324.525 305.633 324.525 301.539V296.666C324.525 292.768 321.796 288.09 318.483 286.141L314.195 283.607L314.585 283.022L318.873 285.556C322.381 287.505 325.305 292.573 325.305 296.666V301.539C325.305 305.438 328.034 310.116 331.347 312.065L351.813 323.955L351.423 324.54Z" fill="#42E8E0"/>
<path d="M359.414 320.057L338.948 308.167C335.44 306.218 332.516 301.15 332.516 297.057V292.184C332.516 288.285 329.788 283.607 326.474 281.658L322.186 279.124L322.576 278.539L326.864 281.073C330.372 283.022 333.296 288.09 333.296 292.184V297.057C333.296 300.955 336.025 305.633 339.338 307.582L359.804 319.472L359.414 320.057Z" fill="#42E8E0"/>
<path d="M367.21 315.379L346.745 303.489C343.236 301.539 340.313 296.471 340.313 292.378V287.505C340.313 283.607 337.584 278.929 334.271 276.98L329.983 274.446L330.372 273.861L334.66 276.395C338.169 278.344 341.092 283.412 341.092 287.505V292.378C341.092 296.277 343.821 300.955 347.135 302.904L367.6 314.794L367.21 315.379Z" fill="#42E8E0"/>
<path d="M375.202 310.7L354.736 298.81C351.228 296.861 348.304 291.793 348.304 287.7V282.827C348.304 278.928 345.575 274.25 342.262 272.301L337.974 269.767L338.364 269.182L342.652 271.716C346.16 273.665 349.084 278.733 349.084 282.827V287.7C349.084 291.598 351.813 296.276 355.126 298.225L375.592 310.115L375.202 310.7Z" fill="#42E8E0"/>
<path d="M383.193 306.217L362.727 294.327C359.219 292.378 356.295 287.31 356.295 283.217V278.344C356.295 274.445 353.567 269.767 350.253 267.818L345.965 265.284L346.355 264.699L350.643 267.233C354.151 269.183 357.075 274.25 357.075 278.344V283.217C357.075 287.115 359.804 291.793 363.117 293.742L383.583 305.632L383.193 306.217Z" fill="#42E8E0"/>
<path d="M391.184 301.539L370.719 289.649C367.21 287.7 364.287 282.632 364.287 278.539V273.666C364.287 269.768 361.558 265.09 358.245 263.14L353.957 260.606L354.346 260.022L358.634 262.556C362.143 264.505 365.066 269.573 365.066 273.666V278.539C365.066 282.437 367.795 287.115 371.109 289.065L391.574 300.955L391.184 301.539Z" fill="#42E8E0"/>
<path d="M399.176 297.056L378.71 285.166C375.202 283.216 372.278 278.149 372.278 274.055V269.182C372.278 265.284 369.549 260.606 366.236 258.657L361.948 256.123L362.338 255.538L366.626 258.072C370.134 260.021 373.058 265.089 373.058 269.182V274.055C373.058 277.954 375.786 282.632 379.1 284.581L399.565 296.471L399.176 297.056Z" fill="#42E8E0"/>
<path d="M407.167 292.378L386.701 280.488C383.193 278.539 380.269 273.471 380.269 269.378V264.505C380.269 260.606 377.541 255.928 374.227 253.979L369.939 251.445L370.329 250.86L374.617 253.394C378.125 255.343 381.049 260.411 381.049 264.505V269.378C381.049 273.276 383.778 277.954 387.091 279.903L407.557 291.793L407.167 292.378Z" fill="#42E8E0"/>
<path d="M415.158 287.895L394.693 276.005C391.184 274.056 388.261 268.988 388.261 264.895V260.022C388.261 256.123 385.532 251.445 382.218 249.496L377.93 246.962L378.32 246.377L382.608 248.911C386.117 250.861 389.04 255.928 389.04 260.022V264.895C389.04 268.793 391.769 273.471 395.082 275.42L415.548 287.31L415.158 287.895Z" fill="#42E8E0"/>
<path d="M423.149 283.217L402.684 271.327C399.176 269.377 396.252 264.31 396.252 260.216V255.343C396.252 251.445 393.523 246.767 390.21 244.818L385.922 242.284L386.312 241.699L390.6 244.233C394.108 246.182 397.032 251.25 397.032 255.343V260.216C397.032 264.115 399.76 268.793 403.074 270.742L423.539 282.632L423.149 283.217Z" fill="#42E8E0"/>
<path d="M430.946 278.734L410.48 266.844C406.972 264.895 404.048 259.827 404.048 255.734V250.861C404.048 246.962 401.32 242.284 398.006 240.335L393.718 237.801L394.108 237.216L398.396 239.75C401.904 241.699 404.828 246.767 404.828 250.861V255.734C404.828 259.632 407.557 264.31 410.87 266.259L431.336 278.149L430.946 278.734Z" fill="#42E8E0"/>
<path d="M438.937 274.056L418.472 262.165C414.963 260.216 412.04 255.148 412.04 251.055V246.182C412.04 242.284 409.311 237.606 405.998 235.657L401.71 233.123L402.099 232.538L406.387 235.072C409.896 237.021 412.819 242.089 412.819 246.182V251.055C412.819 254.953 415.548 259.632 418.862 261.581L439.327 273.471L438.937 274.056Z" fill="#42E8E0"/>
<path d="M446.929 269.378L426.463 257.488C422.955 255.538 420.031 250.471 420.031 246.377V241.699C420.031 237.801 417.302 233.123 413.989 231.174L409.701 228.64L410.091 228.055L414.379 230.589C417.887 232.538 420.811 237.606 420.811 241.699V246.572C420.811 250.471 423.539 255.149 426.853 257.098L447.318 268.988L446.929 269.378Z" fill="#42E8E0"/>
<path d="M454.92 264.894L434.454 253.004C430.946 251.055 428.022 245.987 428.022 241.894V237.021C428.022 233.122 425.294 228.444 421.98 226.495L417.692 223.961L418.082 223.376L422.37 225.91C425.878 227.86 428.802 232.927 428.802 237.021V241.894C428.802 245.792 431.531 250.47 434.844 252.419L455.31 264.309L454.92 264.894Z" fill="#42E8E0"/>
<path d="M462.911 260.216L442.446 248.326C438.937 246.377 436.014 241.309 436.014 237.216V232.343C436.014 228.445 433.285 223.767 429.971 221.817L425.683 219.283L426.073 218.699L430.361 221.233C433.87 223.182 436.793 228.25 436.793 232.343V237.216C436.793 241.114 439.522 245.792 442.835 247.742L463.301 259.632L462.911 260.216Z" fill="#42E8E0"/>
<path d="M470.902 255.734L450.437 243.844C446.929 241.895 444.005 236.827 444.005 232.733V227.86C444.005 223.962 441.276 219.284 437.963 217.335L433.675 214.801L434.064 214.216L438.352 216.75C441.861 218.699 444.785 223.767 444.785 227.86V232.733C444.785 236.632 447.513 241.31 450.827 243.259L471.292 255.149L470.902 255.734Z" fill="#42E8E0"/>
<path d="M478.894 251.055L458.428 239.165C454.92 237.216 451.996 232.148 451.996 228.055V223.182C451.996 219.284 449.268 214.605 445.954 212.656L441.666 210.122L442.056 209.538L446.344 212.072C449.852 214.021 452.776 219.089 452.776 223.182V228.055C452.776 231.953 455.505 236.631 458.818 238.58L479.284 250.471L478.894 251.055Z" fill="#42E8E0"/>
<path d="M248.12 338.379L247.731 337.794L268.196 325.904C271.51 323.955 274.238 319.277 274.238 315.378V310.505C274.238 306.412 277.162 301.539 280.67 299.395L284.958 296.861L285.348 297.446L281.06 299.98C277.747 301.929 275.018 306.607 275.018 310.505V315.378C275.018 319.472 272.094 324.345 268.586 326.489L248.12 338.379Z" fill="#42E8E0"/>
<path d="M240.129 333.701L239.739 333.116L260.205 321.226C263.518 319.277 266.247 314.599 266.247 310.701V306.022C266.247 301.929 269.171 297.056 272.679 294.912L276.967 292.378L277.357 292.963L273.069 295.497C269.755 297.446 267.027 302.124 267.027 306.022V310.895C267.027 314.989 264.103 319.862 260.595 322.006L240.129 333.701Z" fill="#42E8E0"/>
<path d="M232.138 329.217L231.748 328.632L252.214 316.742C255.527 314.793 258.256 310.115 258.256 306.217V301.344C258.256 297.25 261.179 292.377 264.688 290.233L268.976 287.699L269.366 288.284L265.078 290.818C261.764 292.767 259.035 297.445 259.035 301.344V306.217C259.035 310.31 256.112 315.183 252.603 317.327L232.138 329.217Z" fill="#42E8E0"/>
<path d="M224.147 324.54L223.757 323.955L244.222 312.065C247.536 310.116 250.264 305.438 250.264 301.539V296.666C250.264 292.573 253.188 287.7 256.697 285.556L260.985 283.022L261.374 283.607L257.086 286.141C253.773 288.09 251.044 292.768 251.044 296.666V301.539C251.044 305.633 248.12 310.506 244.612 312.65L224.147 324.54Z" fill="#42E8E0"/>
<path d="M216.35 320.057L215.96 319.472L236.426 307.582C239.739 305.633 242.468 300.955 242.468 297.057V292.184C242.468 288.09 245.392 283.217 248.9 281.073L253.188 278.539L253.578 279.124L249.29 281.658C245.976 283.607 243.248 288.285 243.248 292.184V297.057C243.248 301.15 240.324 306.023 236.816 308.167L216.35 320.057Z" fill="#42E8E0"/>
<path d="M208.359 315.379L207.969 314.794L228.435 302.904C231.748 300.955 234.477 296.277 234.477 292.378V287.505C234.477 283.412 237.4 278.539 240.909 276.395L245.197 273.861L245.587 274.446L241.299 276.98C237.985 278.929 235.256 283.607 235.256 287.505V292.378C235.256 296.471 232.333 301.344 228.824 303.489L208.359 315.379Z" fill="#42E8E0"/>
<path d="M200.368 310.7L199.978 310.115L220.443 298.225C223.757 296.276 226.485 291.598 226.485 287.7V282.827C226.485 278.733 229.409 273.86 232.918 271.716L237.206 269.182L237.595 269.767L233.307 272.301C229.994 274.25 227.265 278.928 227.265 282.827V287.7C227.265 291.793 224.341 296.666 220.833 298.81L200.368 310.7Z" fill="#42E8E0"/>
<path d="M192.376 306.217L191.986 305.632L212.452 293.742C215.765 291.793 218.494 287.115 218.494 283.217V278.344C218.494 274.25 221.418 269.378 224.926 267.233L229.214 264.699L229.604 265.284L225.316 267.818C222.002 269.767 219.274 274.445 219.274 278.344V283.217C219.274 287.31 216.35 292.183 212.842 294.327L192.376 306.217Z" fill="#42E8E0"/>
<path d="M151.25 320.252L63.9305 270.158L64.3203 269.573L151.25 319.472L183.995 300.955L204.461 289.065C207.774 287.115 210.503 282.437 210.503 278.539V273.666C210.503 269.573 213.426 264.7 216.935 262.556L221.223 260.022L221.613 260.606L217.325 263.14C214.011 265.09 211.282 269.768 211.282 273.666V278.539C211.282 282.632 208.359 287.505 204.85 289.649L184.385 301.539L151.25 320.252Z" fill="#42E8E0"/>
<path d="M176.394 297.056L176.004 296.471L196.469 284.581C199.783 282.632 202.511 277.954 202.511 274.055V269.182C202.511 265.089 205.435 260.216 208.943 258.072L213.232 255.538L213.621 256.123L209.333 258.657C206.02 260.606 203.291 265.284 203.291 269.182V274.055C203.291 278.149 200.367 283.022 196.859 285.166L176.394 297.056Z" fill="#42E8E0"/>
<path d="M168.402 292.378L168.012 291.793L188.478 279.903C191.791 277.954 194.52 273.276 194.52 269.378V264.505C194.52 260.411 197.444 255.538 200.952 253.394L205.24 250.86L205.63 251.445L201.342 253.979C198.029 255.928 195.3 260.606 195.3 264.505V269.378C195.3 273.471 192.376 278.344 188.868 280.488L168.402 292.378Z" fill="#42E8E0"/>
<path d="M160.411 287.895L160.021 287.31L180.487 275.42C183.8 273.471 186.529 268.793 186.529 264.895V260.022C186.529 255.928 189.453 251.055 192.961 248.911L197.249 246.377L197.639 246.962L193.351 249.496C190.037 251.445 187.309 256.123 187.309 260.022V264.895C187.309 268.988 184.385 273.861 180.877 276.005L160.411 287.895Z" fill="#42E8E0"/>
<path d="M152.615 283.217L152.225 282.632L172.69 270.742C176.004 268.793 178.733 264.115 178.733 260.216V255.343C178.733 251.25 181.656 246.377 185.165 244.233L189.453 241.699L189.842 242.284L185.554 244.818C182.241 246.767 179.512 251.445 179.512 255.343V260.216C179.512 264.31 176.589 269.182 173.08 271.327L152.615 283.217Z" fill="#42E8E0"/>
<path d="M144.623 278.734L144.233 278.149L164.699 266.259C168.012 264.31 170.741 259.632 170.741 255.734V250.861C170.741 246.767 173.665 241.894 177.173 239.75L181.461 237.216L181.851 237.801L177.563 240.335C174.249 242.284 171.521 246.962 171.521 250.861V255.734C171.521 259.827 168.597 264.7 165.089 266.844L144.623 278.734Z" fill="#42E8E0"/>
<path d="M136.632 274.056L136.242 273.471L156.708 261.581C160.021 259.632 162.75 254.953 162.75 251.055V246.182C162.75 242.089 165.673 237.216 169.182 235.072L173.47 232.538L173.86 233.123L169.572 235.657C166.258 237.606 163.529 242.284 163.529 246.182V251.055C163.529 255.148 160.606 260.021 157.097 262.165L136.632 274.056Z" fill="#42E8E0"/>
<path d="M128.641 269.378L128.251 268.793L148.716 256.903C152.03 254.954 154.759 250.276 154.759 246.377V241.699C154.759 237.606 157.682 232.733 161.191 230.589L165.479 228.055L165.868 228.64L161.58 231.174C158.267 233.123 155.538 237.801 155.538 241.699V246.572C155.538 250.666 152.615 255.538 149.106 257.683L128.641 269.378Z" fill="#42E8E0"/>
<path d="M120.649 264.894L120.26 264.309L140.725 252.419C144.038 250.47 146.767 245.792 146.767 241.894V237.021C146.767 232.927 149.691 228.055 153.199 225.91L157.487 223.376L157.877 224.156L153.589 226.69C150.276 228.639 147.547 233.317 147.547 237.216V242.089C147.547 246.182 144.623 251.055 141.115 253.199L120.649 264.894Z" fill="#42E8E0"/>
<path d="M112.658 260.216L112.268 259.632L132.734 247.742C136.047 245.792 138.776 241.114 138.776 237.216V232.343C138.776 228.25 141.7 223.377 145.208 221.233L149.496 218.699L149.886 219.283L145.598 221.817C142.284 223.767 139.556 228.445 139.556 232.343V237.216C139.556 241.309 136.632 246.182 133.124 248.326L112.658 260.216Z" fill="#42E8E0"/>
<path d="M104.667 255.734L104.277 255.149L124.742 243.259C128.056 241.31 130.785 236.632 130.785 232.733V227.86C130.785 223.767 133.708 218.894 137.217 216.75L141.505 214.216L141.894 214.801L137.606 217.335C134.293 219.284 131.564 223.962 131.564 227.86V232.733C131.564 236.827 128.641 241.7 125.132 243.844L104.667 255.734Z" fill="#42E8E0"/>
<path d="M96.6753 251.055L96.2855 250.471L116.751 238.58C120.065 236.631 122.793 231.953 122.793 228.055V223.182C122.793 219.089 125.717 214.216 129.225 212.072L133.513 209.538L133.903 210.122L129.615 212.656C126.302 214.605 123.573 219.284 123.573 223.182V228.055C123.573 232.148 120.649 237.021 117.141 239.165L96.6753 251.055Z" fill="#42E8E0"/>
<g opacity="0.1">
<path opacity="0.1" d="M130.59 164.902L101.353 147.944V181.859L130.59 198.817L160.021 181.859V147.944L130.59 164.902Z" fill="#42E8E0"/>
<path opacity="0.1" d="M130.59 198.817L101.353 181.859V147.944L130.59 164.902V198.817Z" fill="#42E8E0"/>
<path opacity="0.1" d="M160.021 181.859L130.59 198.817V164.902L160.021 147.944V181.859Z" fill="#2FD3C7"/>
<path opacity="0.1" d="M130.59 164.901L101.353 147.943L130.59 130.985L160.021 147.943L130.59 164.901Z" fill="#42E8E0"/>
<path opacity="0.1" d="M130.59 164.902L101.353 147.944V149.503L130.59 166.461L160.021 149.503V147.944L130.59 164.902Z" fill="white"/>
</g>
<path opacity="0.4" d="M130.59 144.435L101.353 127.477L130.59 110.519L160.021 127.477L130.59 144.435Z" fill="#03002D"/>
<path d="M130.59 84.7895L101.353 67.8315V101.747L130.59 118.705L160.021 101.747V67.8315L130.59 84.7895Z" fill="#42E8E0"/>
<path d="M130.59 118.705L101.353 101.747V67.8315L130.59 84.7895V118.705Z" fill="#42E8E0"/>
<path d="M160.021 101.747L130.59 118.705V84.7895L160.021 67.8315V101.747Z" fill="#2FD3C7"/>
<path d="M130.59 84.7894L101.353 67.8314L130.59 50.8735L160.021 67.8314L130.59 84.7894Z" fill="#42E8E0"/>
<path d="M130.59 80.6966L108.565 67.8319L130.59 54.9673L152.809 67.8319L130.59 80.6966Z" fill="#2FD3C7"/>
<path d="M130.59 84.7895L101.353 67.8315V69.3909L130.59 86.3488L160.021 69.3909V67.8315L130.59 84.7895Z" fill="white"/>
<path d="M130.59 33.9159L101.353 16.958V50.8739L130.59 67.8318L160.021 50.8739V16.958L130.59 33.9159Z" fill="#42E8E0"/>
<path d="M130.59 67.8318L101.353 50.8739V16.958L130.59 33.9159V67.8318Z" fill="#42E8E0"/>
<path d="M160.021 50.8739L130.59 67.8318V33.9159L160.021 16.958V50.8739Z" fill="#2FD3C7"/>
<path d="M130.59 33.9158L101.353 16.9579L130.59 0L160.021 16.9579L130.59 33.9158Z" fill="#42E8E0"/>
<path d="M130.59 33.9159L101.353 16.958V18.5174L130.59 35.4753L160.021 18.5174V16.958L130.59 33.9159Z" fill="white"/>
<g opacity="0.1">
<path opacity="0.1" d="M517.291 184.393L487.86 167.435V201.35L517.291 218.308L546.528 201.35V167.435L517.291 184.393Z" fill="#42E8E0"/>
<path opacity="0.1" d="M517.291 218.308L487.86 201.35V167.435L517.291 184.393V218.308Z" fill="#42E8E0"/>
<path opacity="0.1" d="M546.527 201.35L517.291 218.308V184.393L546.527 167.435V201.35Z" fill="#2FD3C7"/>
<path opacity="0.1" d="M517.291 184.392L487.86 167.434L517.291 150.477L546.528 167.434L517.291 184.392Z" fill="#42E8E0"/>
<path opacity="0.1" d="M517.291 184.393L487.86 167.435V168.994L517.291 185.952L546.528 168.994V167.435L517.291 184.393Z" fill="white"/>
</g>
<path d="M518.071 171.918L474.996 146.968L475.385 146.773L518.071 122.213H518.266L561.341 146.968L560.951 147.163L518.071 171.918ZM476.165 146.968L518.071 171.138L559.976 146.968L518.071 122.798L476.165 146.968Z" fill="#42E8E0"/>
<path opacity="0.4" d="M517.291 163.926L487.86 146.968L517.291 130.01L546.528 146.968L517.291 163.926Z" fill="#03002D"/>
<path d="M517.291 104.281L487.86 87.3232V121.239L517.291 138.197L546.528 121.239V87.3232L517.291 104.281Z" fill="#42E8E0"/>
<path d="M517.291 138.197L487.86 121.239V87.3232L517.291 104.281V138.197Z" fill="#42E8E0"/>
<path d="M546.527 121.239L517.291 138.197V104.281L546.527 87.3232V121.239Z" fill="#2FD3C7"/>
<path d="M517.291 104.281L487.86 87.3232L517.291 70.3652L546.528 87.3232L517.291 104.281Z" fill="#42E8E0"/>
<path d="M517.291 104.281L487.86 87.3232V88.8826L517.291 105.841L546.528 88.8826V87.3232L517.291 104.281Z" fill="white"/>
<path d="M43.0751 282.436L0 257.487L0.38982 257.292L43.0751 232.732H43.27L86.3451 257.487L85.9553 257.682L43.0751 282.436ZM1.16946 257.487L43.0751 281.657L84.9808 257.487L43.0751 233.317L1.16946 257.487Z" fill="#42E8E0"/>
<g opacity="0.1">
<path opacity="0.1" d="M43.0751 295.496L13.8386 278.538V312.454L43.0751 329.412L72.5065 312.454V278.538L43.0751 295.496Z" fill="#42E8E0"/>
<path opacity="0.1" d="M43.0751 329.412L13.8386 312.454V278.538L43.0751 295.496V329.412Z" fill="#42E8E0"/>
<path opacity="0.1" d="M72.5065 312.454L43.0751 329.412V295.496L72.5065 278.538V312.454Z" fill="#2FD3C7"/>
<path opacity="0.1" d="M43.0751 295.496L13.8386 278.538L43.0751 261.58L72.5065 278.538L43.0751 295.496Z" fill="#42E8E0"/>
<path opacity="0.1" d="M43.0751 295.496L13.8386 278.538V280.097L43.0751 297.055L72.5065 280.097V278.538L43.0751 295.496Z" fill="white"/>
</g>
<path opacity="0.4" d="M43.0751 275.029L13.8386 258.071L43.0751 241.114L72.5065 258.071L43.0751 275.029Z" fill="#03002D"/>
<path d="M43.0751 215.385L13.8386 198.427V232.343L43.0751 249.301L72.5065 232.343V198.427L43.0751 215.385Z" fill="#42E8E0"/>
<path d="M43.0751 249.301L13.8386 232.343V198.427L43.0751 215.385V249.301Z" fill="#42E8E0"/>
<path d="M72.5065 232.343L43.0751 249.301V215.385L72.5065 198.427V232.343Z" fill="#2FD3C7"/>
<path d="M43.0751 215.385L13.8386 198.427L43.0751 181.469L72.5065 198.427L43.0751 215.385Z" fill="#42E8E0"/>
<path d="M43.0751 215.385L13.8386 198.427V199.791L43.0751 216.749L72.5065 199.791V198.427L43.0751 215.385Z" fill="white"/>
<g opacity="0.1">
<path opacity="0.1" d="M285.153 457.084L255.917 440.126V474.042L285.153 491L314.585 474.042V440.126L285.153 457.084Z" fill="#42E8E0"/>
<path opacity="0.1" d="M285.153 491L255.917 474.042V440.126L285.153 457.084V491Z" fill="#42E8E0"/>
<path opacity="0.1" d="M314.585 474.042L285.153 491V457.084L314.585 440.126V474.042Z" fill="#2FD3C7"/>
<path opacity="0.1" d="M285.153 457.084L255.917 440.126L285.153 423.168L314.585 440.126L285.153 457.084Z" fill="#42E8E0"/>
<path opacity="0.1" d="M285.153 457.084L255.917 440.126V441.686L285.153 458.643L314.585 441.686V440.126L285.153 457.084Z" fill="white"/>
</g>
<path opacity="0.4" d="M285.153 436.617L255.917 419.659L285.153 402.701L314.585 419.659L285.153 436.617Z" fill="#03002D"/>
<path d="M285.153 376.973L255.917 360.015V393.931L285.153 410.889L314.585 393.931V360.015L285.153 376.973Z" fill="#42E8E0"/>
<path d="M285.153 410.889L255.917 393.931V360.015L285.153 376.973V410.889Z" fill="#42E8E0"/>
<path d="M314.585 393.931L285.153 410.889V376.973L314.585 360.015V393.931Z" fill="#2FD3C7"/>
<path d="M285.153 376.972L255.917 360.015L285.153 343.057L314.585 360.015L285.153 376.972Z" fill="#42E8E0"/>
<path d="M285.153 376.973L255.917 360.015V361.574L285.153 378.532L314.585 361.574V360.015L285.153 376.973Z" fill="white"/>
<g opacity="0.1">
<path opacity="0.1" d="M526.647 377.752L552.18 400.168L558.807 367.032L533.469 344.421L501.308 355.337L494.487 388.473L526.647 377.752Z" fill="#42E8E0"/>
<path opacity="0.1" d="M533.468 344.421L558.807 367.032L552.18 400.168L526.647 377.752L533.468 344.421Z" fill="#42E8E0"/>
<path opacity="0.1" d="M501.308 355.337L533.469 344.421L526.647 377.753L494.487 388.473L501.308 355.337Z" fill="#2FD3C7"/>
<path opacity="0.1" d="M526.647 377.752L552.18 400.168L520.02 410.888L494.487 388.472L526.647 377.752Z" fill="#42E8E0"/>
<path opacity="0.1" d="M526.647 377.752L552.18 400.168L552.375 398.803L527.037 376.193L494.876 387.108L494.487 388.473L526.647 377.752Z" fill="white"/>
</g>
<path opacity="0.4" d="M531.909 364.693L502.478 347.93L531.909 330.972L561.341 347.93L531.909 364.693Z" fill="#03002D"/>
<path opacity="0.4" d="M531.909 394.32C512.613 394.32 493.122 390.032 478.504 381.65C464.081 373.464 456.284 362.353 456.284 350.658C456.284 338.963 464.276 327.853 478.504 319.666C507.935 302.708 555.883 302.708 585.315 319.666C599.738 327.853 607.534 338.963 607.534 350.658C607.534 362.353 599.543 373.464 585.315 381.65C570.696 390.032 551.205 394.32 531.909 394.32ZM531.909 307.191C512.613 307.191 493.512 311.48 478.699 319.861C464.47 328.048 456.869 338.768 456.869 350.463C456.869 361.964 464.665 372.879 478.699 381.066C507.935 398.023 555.688 398.023 584.925 381.066C599.153 372.879 606.755 362.158 606.755 350.658C606.755 339.158 598.958 328.243 584.925 320.056C570.307 311.48 551.205 307.191 531.909 307.191Z" fill="#42E8E0"/>
<path opacity="0.2" d="M531.909 406.015C507.351 406.015 482.792 400.557 464.081 389.837C445.954 379.311 435.819 365.277 435.819 350.463C435.819 335.65 445.759 321.615 464.081 311.09C501.503 289.454 562.315 289.454 599.738 311.09C617.865 321.615 628 335.65 628 350.463C628 365.277 618.06 379.311 599.738 389.837L599.543 389.642L599.738 389.837C581.027 400.557 556.468 406.015 531.909 406.015ZM531.909 295.496C507.546 295.496 482.987 300.954 464.47 311.675C446.539 322.005 436.598 335.844 436.598 350.463C436.598 365.082 446.539 378.921 464.47 389.252C501.698 410.693 562.315 410.693 599.543 389.252C617.475 378.921 627.415 365.082 627.415 350.463C627.415 335.844 617.475 322.005 599.543 311.675C580.832 300.954 556.273 295.496 531.909 295.496Z" fill="#42E8E0"/>
<path d="M531.909 384.964C516.706 384.964 501.308 381.651 489.809 374.829C478.504 368.396 472.267 359.625 472.267 350.269C472.267 340.913 478.504 332.336 489.809 325.709C513.003 312.26 550.816 312.26 574.01 325.709C585.315 332.336 591.552 340.913 591.552 350.269C591.552 359.625 585.315 368.201 574.01 374.829C562.315 381.651 547.112 384.964 531.909 384.964ZM531.909 316.548C516.706 316.548 501.698 319.862 490.004 326.489C478.894 332.921 472.851 341.498 472.851 350.464C472.851 359.43 478.894 368.006 490.004 374.439C513.003 387.693 550.621 387.693 573.62 374.439L573.815 374.634L573.62 374.439C584.73 368.006 590.772 359.43 590.772 350.464C590.772 341.498 584.73 332.921 573.62 326.489C562.12 319.862 547.112 316.548 531.909 316.548Z" fill="#42E8E0"/>
<path d="M528.596 317.912L525.087 284.191L497.605 304.073L500.919 337.794L531.909 351.828L559.392 331.946L528.596 317.912Z" fill="#42E8E0"/>
<path d="M500.919 337.794L497.605 304.073L525.087 284.191L528.596 317.912L500.919 337.794Z" fill="#42E8E0"/>
<path d="M531.909 351.828L500.919 337.794L528.596 317.912L559.391 331.946L531.909 351.828Z" fill="#2FD3C7"/>
<path d="M528.596 317.912L525.087 284.191L556.078 298.225L559.392 331.946L528.596 317.912Z" fill="#42E8E0"/>
<path d="M528.596 317.912L525.087 284.191L523.918 285.166L527.231 318.887L558.222 332.726L559.392 331.946L528.596 317.912Z" fill="white"/>
<path opacity="0.4" d="M514.562 343.836H542.824L531.909 351.828L514.562 343.836Z" fill="#03002D"/>
<path d="M288.077 128.841L258.646 111.884V145.799L288.077 162.757L317.508 145.799V111.884L288.077 128.841Z" fill="#42E8E0"/>
<path d="M288.077 162.757L258.646 145.799V111.884L288.077 128.841V162.757Z" fill="#42E8E0"/>
<path d="M317.508 145.799L288.077 162.757V128.841L317.508 111.884V145.799Z" fill="#2FD3C7"/>
<path d="M288.077 128.841L258.646 111.883L288.077 94.9255L317.508 111.883L288.077 128.841Z" fill="#42E8E0"/>
<path d="M288.077 128.841L260.01 112.468L258.646 113.248L288.077 130.206L317.508 113.248L316.144 112.663L288.077 128.841Z" fill="white"/>
<path d="M326.279 150.477L296.848 133.52V167.435L326.279 184.393L355.516 167.435V133.52L326.279 150.477Z" fill="#42E8E0"/>
<path d="M326.279 184.393L296.848 167.435V133.52L326.279 150.477V184.393Z" fill="#42E8E0"/>
<path d="M355.516 167.435L326.279 184.393V150.477L355.516 133.52V167.435Z" fill="#2FD3C7"/>
<path d="M326.279 150.477L296.848 133.519L326.279 116.561L355.516 133.519L326.279 150.477Z" fill="#42E8E0"/>
<path d="M326.279 150.477L298.212 134.299L296.848 135.078L326.279 152.036L355.516 135.078L354.346 134.299L326.279 150.477Z" fill="white"/>
<path d="M364.287 172.309L335.05 155.351V189.266L364.287 206.224L393.718 189.266V155.351L364.287 172.309Z" fill="#42E8E0"/>
<path d="M364.287 206.224L335.05 189.266V155.351L364.287 172.309V206.224Z" fill="#42E8E0"/>
<path d="M393.718 189.266L364.287 206.224V172.309L393.718 155.351V189.266Z" fill="#2FD3C7"/>
<path d="M364.287 172.308L335.05 155.35L364.287 138.392L393.718 155.35L364.287 172.308Z" fill="#42E8E0"/>
<path d="M364.287 172.309L336.22 156.13L335.05 156.91L364.287 173.868L393.718 156.91V155.351L364.287 172.309Z" fill="white"/>
<path d="M249.875 152.037L220.638 135.079V168.994L249.875 185.952L279.306 168.994V135.079L249.875 152.037Z" fill="#42E8E0"/>
<path d="M249.875 185.952L220.638 168.994V135.079L249.875 152.037V185.952Z" fill="#42E8E0"/>
<path d="M279.306 168.994L249.875 185.952V152.037L279.306 135.079V168.994Z" fill="#2FD3C7"/>
<path d="M249.875 152.036L220.638 135.078L249.875 118.12L279.306 135.078L249.875 152.036Z" fill="#42E8E0"/>
<path d="M249.875 152.036L221.808 135.858L220.638 136.442L249.875 153.4L279.306 136.442L277.942 135.858L249.875 152.036Z" fill="white"/>
<path d="M288.077 173.867L258.646 156.909V190.825L288.077 207.783L317.508 190.825V156.909L288.077 173.867Z" fill="#42E8E0"/>
<path d="M288.077 207.783L258.646 190.825V156.909L288.077 173.867V207.783Z" fill="#42E8E0"/>
<path d="M317.508 190.825L288.077 207.783V173.867L317.508 156.909V190.825Z" fill="#2FD3C7"/>
<path d="M288.077 173.867L258.646 156.909L288.077 139.951L317.508 156.909L288.077 173.867Z" fill="#42E8E0"/>
<path d="M288.077 173.867L260.01 157.494L258.646 158.274L288.077 175.232L317.508 158.274L316.144 157.494L288.077 173.867Z" fill="white"/>
<path d="M326.279 195.504L296.848 178.546V212.462L326.279 229.42L355.516 212.462V178.546L326.279 195.504Z" fill="#42E8E0"/>
<path d="M326.279 229.42L296.848 212.462V178.546L326.279 195.504V229.42Z" fill="#42E8E0"/>
<path d="M355.516 212.462L326.279 229.42V195.504L355.516 178.546V212.462Z" fill="#2FD3C7"/>
<path d="M326.279 195.504L296.848 178.546L326.279 161.588L355.516 178.546L326.279 195.504Z" fill="#42E8E0"/>
<path d="M326.279 195.504L298.212 179.326L296.848 180.105L326.279 197.063L355.516 180.105V178.546L326.279 195.504Z" fill="white"/>
<path d="M211.867 175.232L182.436 158.274V192.19L211.867 209.148L241.104 192.19V158.274L211.867 175.232Z" fill="#42E8E0"/>
<path d="M211.867 209.148L182.436 192.19V158.274L211.867 175.232V209.148Z" fill="#42E8E0"/>
<path d="M241.104 192.19L211.867 209.148V175.232L241.104 158.274V192.19Z" fill="#2FD3C7"/>
<path d="M211.867 175.232L182.436 158.274L211.867 141.316L241.104 158.274L211.867 175.232Z" fill="#42E8E0"/>
<path d="M211.867 175.232L182.436 158.274V159.834L211.867 176.791L241.104 159.834L239.934 159.054L211.867 175.232Z" fill="white"/>
<path d="M249.875 197.063L220.638 180.105V214.021L249.875 230.979L279.306 214.021V180.105L249.875 197.063Z" fill="#42E8E0"/>
<path d="M249.875 230.979L220.638 214.021V180.105L249.875 197.063V230.979Z" fill="#42E8E0"/>
<path d="M279.306 214.021L249.875 230.979V197.063L279.306 180.105V214.021Z" fill="#2FD3C7"/>
<path d="M249.875 197.063L220.638 180.105L249.875 163.147L279.306 180.105L249.875 197.063Z" fill="#42E8E0"/>
<path d="M249.875 197.063L220.638 180.105V181.47L249.875 198.428L279.306 181.47L277.942 180.885L249.875 197.063Z" fill="white"/>
<path d="M288.077 218.894L258.646 201.937V235.657L288.077 252.615L317.508 235.657V201.937L288.077 218.894Z" fill="#42E8E0"/>
<path d="M288.077 252.615L258.646 235.657V201.937L288.077 218.894V252.615Z" fill="#42E8E0"/>
<path d="M317.508 235.657L288.077 252.615V218.894L317.508 201.937V235.657Z" fill="#2FD3C7"/>
<path d="M288.077 218.894L258.646 201.936L288.077 184.978L317.508 201.936L288.077 218.894Z" fill="#42E8E0"/>
<path d="M288.077 218.894L258.646 201.937V203.301L288.077 220.259L317.508 203.301V201.937L288.077 218.894Z" fill="white"/>
<path d="M288.077 83.8149L258.646 66.8569V100.773L288.077 117.731L317.508 100.773V66.8569L288.077 83.8149Z" fill="#42E8E0"/>
<path d="M288.077 117.731L258.646 100.773V66.8569L288.077 83.8149V117.731Z" fill="#42E8E0"/>
<path d="M317.508 100.773L288.077 117.731V83.8149L317.508 66.8569V100.773Z" fill="#2FD3C7"/>
<path d="M288.077 83.8148L258.646 66.8568L288.077 49.8989L317.508 66.8568L288.077 83.8148Z" fill="#42E8E0"/>
<path d="M288.077 83.8144L260.01 67.6362L258.646 68.221L288.077 85.1789L317.508 68.221L316.144 67.6362L288.077 83.8144Z" fill="white"/>
<path opacity="0.7" d="M288.077 213.241L268.001 201.741L288.077 190.046L308.153 201.741L288.077 213.241Z" fill="#18B2A3"/>
<path opacity="0.7" d="M249.875 191.41L229.994 179.909L249.875 168.409L269.95 179.909L249.875 191.41Z" fill="#18B2A3"/>
<path opacity="0.7" d="M326.279 190.045L306.204 178.545L326.279 166.85L346.355 178.545L326.279 190.045Z" fill="#18B2A3"/>
<path opacity="0.7" d="M364.482 167.045L344.406 155.545L364.482 143.85L384.557 155.545L364.482 167.045Z" fill="#18B2A3"/>
<path opacity="0.7" d="M211.867 169.774L191.791 158.079L211.867 146.579L231.748 158.079L211.867 169.774Z" fill="#18B2A3"/>
<path d="M326.279 105.646L296.848 88.688V122.409L326.279 139.367L355.516 122.409V88.688L326.279 105.646Z" fill="#42E8E0"/>
<path d="M326.279 139.367L296.848 122.409V88.688L326.279 105.646V139.367Z" fill="#42E8E0"/>
<path d="M355.516 122.409L326.279 139.367V105.646L355.516 88.688V122.409Z" fill="#2FD3C7"/>
<path d="M326.279 105.646L296.848 88.6879L326.279 71.73L355.516 88.6879L326.279 105.646Z" fill="#42E8E0"/>
<path d="M326.279 105.646L298.212 89.2727L296.848 90.0524L326.279 107.01L355.516 90.0524L354.346 89.2727L326.279 105.646Z" fill="white"/>
<path d="M364.287 127.282L335.05 110.324V144.24L364.287 161.198L393.718 144.24V110.324L364.287 127.282Z" fill="#42E8E0"/>
<path d="M364.287 161.198L335.05 144.24V110.324L364.287 127.282V161.198Z" fill="#42E8E0"/>
<path d="M393.718 144.24L364.287 161.198V127.282L393.718 110.324V144.24Z" fill="#2FD3C7"/>
<path d="M364.287 127.282L335.05 110.324L364.287 93.3665L393.718 110.324L364.287 127.282Z" fill="#42E8E0"/>
<path d="M364.287 127.282L336.22 111.104L335.05 111.884L364.287 128.842L393.718 111.884V110.324L364.287 127.282Z" fill="white"/>
<path d="M249.875 107.01L220.638 90.0525V123.968L249.875 140.926L279.306 123.968V90.0525L249.875 107.01Z" fill="#42E8E0"/>
<path d="M249.875 140.926L220.638 123.968V90.0525L249.875 107.01V140.926Z" fill="#42E8E0"/>
<path d="M279.306 123.968L249.875 140.926V107.01L279.306 90.0525V123.968Z" fill="#2FD3C7"/>
<path d="M249.875 107.01L220.638 90.0524L249.875 73.0945L279.306 90.0524L249.875 107.01Z" fill="#42E8E0"/>
<path d="M249.875 107.01L221.808 90.8318L220.638 91.6115L249.875 108.569L279.306 91.6115L277.942 90.8318L249.875 107.01Z" fill="white"/>
<path d="M288.077 128.841L258.646 111.884V145.799L288.077 162.757L317.508 145.799V111.884L288.077 128.841Z" fill="#42E8E0"/>
<path d="M288.077 162.757L258.646 145.799V111.884L288.077 128.841V162.757Z" fill="#42E8E0"/>
<path d="M317.508 145.799L288.077 162.757V128.841L317.508 111.884V145.799Z" fill="#2FD3C7"/>
<path d="M288.077 128.841L258.646 111.883L288.077 94.9255L317.508 111.883L288.077 128.841Z" fill="#42E8E0"/>
<path d="M288.077 128.841L260.01 112.663L258.646 113.248L288.077 130.205L317.508 113.248L316.144 112.663L288.077 128.841Z" fill="white"/>
<path d="M326.279 150.477L296.848 133.52V167.435L326.279 184.393L355.516 167.435V133.52L326.279 150.477Z" fill="#42E8E0"/>
<path d="M326.279 184.393L296.848 167.435V133.52L326.279 150.477V184.393Z" fill="#42E8E0"/>
<path d="M355.516 167.435L326.279 184.393V150.477L355.516 133.52V167.435Z" fill="#2FD3C7"/>
<path d="M326.279 150.477L296.848 133.519L326.279 116.561L355.516 133.519L326.279 150.477Z" fill="#42E8E0"/>
<path d="M326.279 150.477L298.212 134.299L296.848 135.079L326.279 152.037L355.516 135.079V133.52L326.279 150.477Z" fill="white"/>
<path d="M211.867 130.206L182.436 113.249V147.164L211.867 164.122L241.104 147.164V113.249L211.867 130.206Z" fill="#42E8E0"/>
<path d="M211.867 164.122L182.436 147.164V113.249L211.867 130.206V164.122Z" fill="#42E8E0"/>
<path d="M241.104 147.164L211.867 164.122V130.206L241.104 113.249V147.164Z" fill="#2FD3C7"/>
<path d="M211.867 130.206L182.436 113.248L211.867 96.2903L241.104 113.248L211.867 130.206Z" fill="#42E8E0"/>
<path d="M211.867 130.206L183.605 114.028L182.436 114.807L211.867 131.765L241.104 114.807L239.934 114.028L211.867 130.206Z" fill="white"/>
<path d="M249.875 152.037L220.638 135.079V168.994L249.875 185.952L279.306 168.994V135.079L249.875 152.037Z" fill="#42E8E0"/>
<path d="M249.875 185.952L220.638 168.994V135.079L249.875 152.037V185.952Z" fill="#42E8E0"/>
<path d="M279.306 168.994L249.875 185.952V152.037L279.306 135.079V168.994Z" fill="#2FD3C7"/>
<path d="M249.875 152.036L220.638 135.078L249.875 118.12L279.306 135.078L249.875 152.036Z" fill="#42E8E0"/>
<path d="M249.875 152.037L220.638 135.079V136.443L249.875 153.401L279.306 136.443L277.942 135.858L249.875 152.037Z" fill="white"/>
<path d="M288.077 173.867L258.646 156.909V190.825L288.077 207.783L317.508 190.825V156.909L288.077 173.867Z" fill="#42E8E0"/>
<path d="M288.077 207.783L258.646 190.825V156.909L288.077 173.867V207.783Z" fill="#42E8E0"/>
<path d="M317.508 190.825L288.077 207.783V173.867L317.508 156.909V190.825Z" fill="#2FD3C7"/>
<path d="M288.077 173.867L258.646 156.909L288.077 139.951L317.508 156.909L288.077 173.867Z" fill="#42E8E0"/>
<path d="M288.077 173.867L258.646 156.909V158.274L288.077 175.232L317.508 158.274V156.909L288.077 173.867Z" fill="white"/>
<path opacity="0.7" d="M364.482 122.215L344.406 110.714L364.482 99.2141L384.557 110.714L364.482 122.215Z" fill="#18B2A3"/>
<path opacity="0.7" d="M211.867 124.943L191.791 113.443L211.867 101.748L231.748 113.443L211.867 124.943Z" fill="#18B2A3"/>
<path d="M288.077 38.789L258.646 21.8311V55.7469L288.077 72.7048L317.508 55.7469V21.8311L288.077 38.789Z" fill="#42E8E0"/>
<path d="M288.077 72.7048L258.646 55.7469V21.8311L288.077 38.789V72.7048Z" fill="#42E8E0"/>
<path d="M317.508 55.7469L288.077 72.7048V38.789L317.508 21.8311V55.7469Z" fill="#2FD3C7"/>
<path d="M288.077 38.7889L258.646 21.831L288.077 4.87305L317.508 21.831L288.077 38.7889Z" fill="#42E8E0"/>
<path d="M288.077 38.789L258.646 21.8311V23.1955L288.077 40.1534L317.508 23.1955V21.8311L288.077 38.789Z" fill="white"/>
<path d="M326.279 60.62L296.848 43.6621V77.578L326.279 94.5359L355.516 77.578V43.6621L326.279 60.62Z" fill="#42E8E0"/>
<path d="M326.279 94.5359L296.848 77.578V43.6621L326.279 60.62V94.5359Z" fill="#42E8E0"/>
<path d="M355.516 77.578L326.279 94.5359V60.62L355.516 43.6621V77.578Z" fill="#2FD3C7"/>
<path d="M326.279 60.6199L296.848 43.662L326.279 26.7041L355.516 43.662L326.279 60.6199Z" fill="#42E8E0"/>
<path d="M326.279 60.62L296.848 43.6621V45.0265L326.279 61.9845L355.516 45.0265V43.6621L326.279 60.62Z" fill="white"/>
<path d="M364.287 82.2558L335.05 65.2979V99.2137L364.287 116.172L393.718 99.2137V65.2979L364.287 82.2558Z" fill="#42E8E0"/>
<path d="M364.287 116.172L335.05 99.2137V65.2979L364.287 82.2558V116.172Z" fill="#42E8E0"/>
<path d="M393.718 99.2137L364.287 116.172V82.2558L393.718 65.2979V99.2137Z" fill="#2FD3C7"/>
<path d="M364.287 82.2557L335.05 65.2978L364.287 48.3398L393.718 65.2978L364.287 82.2557Z" fill="#42E8E0"/>
<path d="M364.287 82.2558L335.05 65.2979V66.8572L364.287 83.8151L393.718 66.8572V65.2979L364.287 82.2558Z" fill="white"/>
<path d="M249.875 61.9848L220.638 45.0269V78.9427L249.875 95.9006L279.306 78.9427V45.0269L249.875 61.9848Z" fill="#42E8E0"/>
<path d="M249.875 95.9006L220.638 78.9427V45.0269L249.875 61.9848V95.9006Z" fill="#42E8E0"/>
<path d="M279.306 78.9427L249.875 95.9006V61.9848L279.306 45.0269V78.9427Z" fill="#2FD3C7"/>
<path d="M249.875 61.9847L220.638 45.0268L249.875 28.0688L279.306 45.0268L249.875 61.9847Z" fill="#42E8E0"/>
<path d="M249.875 61.9848L220.638 45.0269V46.5862L249.875 63.5441L279.306 46.5862V45.0269L249.875 61.9848Z" fill="white"/>
<path d="M211.867 85.1794L182.436 68.2214V102.137L211.867 119.095L241.104 102.137V68.2214L211.867 85.1794Z" fill="#42E8E0"/>
<path d="M211.867 119.095L182.436 102.137V68.2214L211.867 85.1794V119.095Z" fill="#42E8E0"/>
<path d="M241.104 102.137L211.867 119.095V85.1794L241.104 68.2214V102.137Z" fill="#2FD3C7"/>
<path d="M211.867 85.1793L182.436 68.2214L211.867 51.2634L241.104 68.2214L211.867 85.1793Z" fill="#42E8E0"/>
<path d="M211.867 85.1793L182.436 68.2214V69.7808L211.867 86.7387L241.104 69.7808V68.2214L211.867 85.1793Z" fill="white"/>
<path opacity="0.4" d="M113.243 300.175C113.243 302.319 114.997 304.073 117.141 304.073C119.285 304.073 121.039 302.319 121.039 300.175C121.039 298.03 119.285 296.276 117.141 296.276C115.192 296.081 113.243 298.03 113.243 300.175Z" fill="#42E8E0"/>
<path d="M117.336 301.929C118.305 301.929 119.09 301.143 119.09 300.174C119.09 299.206 118.305 298.42 117.336 298.42C116.367 298.42 115.582 299.206 115.582 300.174C115.582 301.143 116.367 301.929 117.336 301.929Z" fill="#42E8E0"/>
<path opacity="0.4" d="M463.886 119.485C463.886 121.629 465.64 123.383 467.784 123.383C469.928 123.383 471.682 121.629 471.682 119.485C471.682 117.341 469.928 115.587 467.784 115.587C465.64 115.587 463.886 117.146 463.886 119.485Z" fill="#42E8E0"/>
<path d="M466.225 119.485C466.225 120.459 467.004 121.239 467.979 121.239C468.953 121.239 469.733 120.459 469.733 119.485C469.733 118.51 468.953 117.73 467.979 117.73C467.004 117.73 466.225 118.51 466.225 119.485Z" fill="#42E8E0"/>
<path opacity="0.4" d="M579.272 367.616C579.272 369.76 581.027 371.514 583.171 371.514C585.315 371.514 587.069 369.76 587.069 367.616C587.069 365.472 585.315 363.718 583.171 363.718C581.221 363.718 579.272 365.472 579.272 367.616Z" fill="#42E8E0"/>
<path d="M583.365 369.37C584.334 369.37 585.12 368.584 585.12 367.616C585.12 366.647 584.334 365.861 583.365 365.861C582.397 365.861 581.611 366.647 581.611 367.616C581.611 368.584 582.397 369.37 583.365 369.37Z" fill="#42E8E0"/>
<path opacity="0.4" d="M507.741 387.887C511.185 387.887 513.978 385.095 513.978 381.65C513.978 378.205 511.185 375.413 507.741 375.413C504.296 375.413 501.503 378.205 501.503 381.65C501.503 385.095 504.296 387.887 507.741 387.887Z" fill="#42E8E0"/>
<path d="M505.207 381.65C505.207 383.209 506.376 384.379 507.935 384.379C509.495 384.379 510.664 383.209 510.664 381.65C510.664 380.09 509.495 378.921 507.935 378.921C506.376 378.921 505.207 380.285 505.207 381.65Z" fill="#42E8E0"/>
<path opacity="0.4" d="M482.987 327.658C482.987 329.997 484.936 331.947 487.275 331.947C489.614 331.947 491.563 329.997 491.563 327.658C491.563 325.319 489.614 323.37 487.275 323.37C484.936 323.565 482.987 325.319 482.987 327.658Z" fill="#42E8E0"/>
<path d="M485.326 327.658C485.326 328.633 486.105 329.413 487.08 329.413C488.055 329.413 488.834 328.633 488.834 327.658C488.834 326.684 488.055 325.904 487.08 325.904C486.105 325.904 485.326 326.684 485.326 327.658Z" fill="#42E8E0"/>
<path opacity="0.4" d="M421.785 96.4848C421.785 98.6289 423.539 100.383 425.683 100.383C427.827 100.383 429.582 98.6289 429.582 96.4848C429.582 94.3407 427.827 92.5864 425.683 92.5864C423.539 92.5864 421.785 94.3407 421.785 96.4848Z" fill="#42E8E0"/>
<path d="M423.929 96.4845C423.929 97.4591 424.709 98.2388 425.683 98.2388C426.658 98.2388 427.438 97.4591 427.438 96.4845C427.438 95.5099 426.658 94.7302 425.683 94.7302C424.709 94.9251 423.929 95.7048 423.929 96.4845Z" fill="#42E8E0"/>
<path opacity="0.4" d="M68.6082 275.031C68.6082 277.175 70.3624 278.929 72.5064 278.929C74.6504 278.929 76.4046 277.175 76.4046 275.031C76.4046 272.887 74.6504 271.132 72.5064 271.132C70.3624 270.937 68.6082 272.692 68.6082 275.031Z" fill="#42E8E0"/>
<path d="M70.7523 275.031C70.7523 276.005 71.5319 276.785 72.5065 276.785C73.481 276.785 74.2606 276.005 74.2606 275.031C74.2606 274.056 73.481 273.276 72.5065 273.276C71.5319 273.276 70.7523 274.056 70.7523 275.031Z" fill="#42E8E0"/>
<defs>
<linearGradient id="paint0_linear" x1="52.8163" y1="300.862" x2="456.273" y2="300.862" gradientUnits="userSpaceOnUse">
<stop stop-color="#5761D7"/>
<stop offset="0.1645" stop-color="#5E67DA"/>
<stop offset="0.4051" stop-color="#727AE2"/>
<stop offset="0.6924" stop-color="#9297EE"/>
<stop offset="1" stop-color="#BCBEFF"/>
</linearGradient>
<linearGradient id="paint1_linear" x1="52.8163" y1="262.419" x2="456.273" y2="262.419" gradientUnits="userSpaceOnUse">
<stop stop-color="#5761D7"/>
<stop offset="0.1645" stop-color="#5E67DA"/>
<stop offset="0.4051" stop-color="#727AE2"/>
<stop offset="0.6924" stop-color="#9297EE"/>
<stop offset="1" stop-color="#BCBEFF"/>
</linearGradient>
<linearGradient id="paint2_linear" x1="166.995" y1="207.899" x2="409.16" y2="207.899" gradientUnits="userSpaceOnUse">
<stop stop-color="#42E8E0"/>
<stop offset="0.1507" stop-color="#43E3E0"/>
<stop offset="0.3285" stop-color="#45D5DF"/>
<stop offset="0.5199" stop-color="#49BDDD"/>
<stop offset="0.7209" stop-color="#4E9CDB"/>
<stop offset="0.9274" stop-color="#5472D8"/>
<stop offset="1" stop-color="#5761D7"/>
</linearGradient>
<linearGradient id="paint3_linear" x1="288.076" y1="164.13" x2="409.16" y2="164.13" gradientUnits="userSpaceOnUse">
<stop stop-color="#42E8E0"/>
<stop offset="0.1507" stop-color="#43E3E0"/>
<stop offset="0.3285" stop-color="#45D5DF"/>
<stop offset="0.5199" stop-color="#49BDDD"/>
<stop offset="0.7209" stop-color="#4E9CDB"/>
<stop offset="0.9274" stop-color="#5472D8"/>
<stop offset="1" stop-color="#5761D7"/>
</linearGradient>
<linearGradient id="paint4_linear" x1="166.995" y1="164.129" x2="288.079" y2="164.129" gradientUnits="userSpaceOnUse">
<stop stop-color="#42E8E0"/>
<stop offset="0.1507" stop-color="#43E3E0"/>
<stop offset="0.3285" stop-color="#45D5DF"/>
<stop offset="0.5199" stop-color="#49BDDD"/>
<stop offset="0.7209" stop-color="#4E9CDB"/>
<stop offset="0.9274" stop-color="#5472D8"/>
<stop offset="1" stop-color="#5761D7"/>
</linearGradient>
<linearGradient id="paint5_linear" x1="166.995" y1="190.27" x2="409.16" y2="190.27" gradientUnits="userSpaceOnUse">
<stop stop-color="#42E8E0"/>
<stop offset="0.1507" stop-color="#43E3E0"/>
<stop offset="0.3285" stop-color="#45D5DF"/>
<stop offset="0.5199" stop-color="#49BDDD"/>
<stop offset="0.7209" stop-color="#4E9CDB"/>
<stop offset="0.9274" stop-color="#5472D8"/>
<stop offset="1" stop-color="#5761D7"/>
</linearGradient>
<linearGradient id="paint6_linear" x1="288.079" y1="234.04" x2="409.16" y2="234.04" gradientUnits="userSpaceOnUse">
<stop stop-color="#42E8E0"/>
<stop offset="0.1507" stop-color="#43E3E0"/>
<stop offset="0.3285" stop-color="#45D5DF"/>
<stop offset="0.5199" stop-color="#49BDDD"/>
<stop offset="0.7209" stop-color="#4E9CDB"/>
<stop offset="0.9274" stop-color="#5472D8"/>
<stop offset="1" stop-color="#5761D7"/>
</linearGradient>
<linearGradient id="paint7_linear" x1="166.995" y1="234.039" x2="288.079" y2="234.039" gradientUnits="userSpaceOnUse">
<stop stop-color="#42E8E0"/>
<stop offset="0.1507" stop-color="#43E3E0"/>
<stop offset="0.3285" stop-color="#45D5DF"/>
<stop offset="0.5199" stop-color="#49BDDD"/>
<stop offset="0.7209" stop-color="#4E9CDB"/>
<stop offset="0.9274" stop-color="#5472D8"/>
<stop offset="1" stop-color="#5761D7"/>
</linearGradient>
</defs>
</svg>
